####
#
# OBJ File Generated by Meshlab
#
####
# Object index1_vis.obj
#
# Vertices: 47
# Faces: 90
#
####
vn -3.4150070605041689 -3.2981180963157430 0.3806254248902494
v -0.0335200000000000 -0.0048080000000000 0.0027780000000000
vn -3.0512417711756799 -2.5569057441144261 2.0664641625588085
v -0.0334490000000000 -0.0029770000000000 0.0081200000000000
vn -2.4511136799179725 0.5767926805788455 2.8919027078933639
v -0.0340990000000000 0.0065410000000000 0.0116070000000000
vn -2.5633144138501800 2.4780747195926831 2.1166927815335042
v -0.0341580000000000 0.0109270000000000 0.0087050000000000
vn 1.7058958155804826 -2.1415910376617262 -0.3144191241895393
v 0.0038440000000000 -0.0104000000000000 0.0017480000000000
vn 1.8634184307606203 -1.6425580428387192 0.8564815863722761
v 0.0059390000000000 -0.0082030000000000 0.0077260000000000
vn -2.7997735401328256 2.3657689326432600 0.5622794333369294
v -0.0348920000000000 0.0129980000000000 0.0030570000000000
vn 2.3069512379817301 1.0216941973587348 3.4544028530374389
v 0.0038050000000000 0.0049630000000000 0.0116200000000000
vn 1.8804069243581814 -1.0962099180516458 3.6953565224128155
v 0.0042370000000000 -0.0030600000000000 0.0115410000000000
vn -0.5046533484457245 -5.8299220061423993 -0.7900376200053755
v -0.0000910000000000 -0.0096730000000000 -0.0039930000000000
vn -0.0777810566174709 4.8730658146468890 3.4289536658745834
v -0.0293880000000000 0.0115620000000000 0.0080470000000000
vn 0.1072596990458363 1.9118168666464073 5.6622126571499001
v -0.0291540000000000 0.0070320000000000 0.0113890000000000
vn 0.3240762657295850 1.7630938702196612 5.7002126687989989
v -0.0111520000000000 0.0064210000000000 0.0109120000000000
vn 0.2297711823239077 4.6949786397020352 3.6770902131036207
v -0.0123210000000000 0.0118700000000000 0.0072510000000000
vn -1.4873835507125222 -3.0168189155273444 -4.8781853491518889
v -0.0094540000000000 -0.0029370000000000 -0.0080380000000000
vn -2.6323580408423242 -5.4388647822007492 -1.0428762439903592
v -0.0064860000000000 -0.0072870000000000 -0.0037180000000000
vn -1.4218475813615163 -5.6323441859822161 -2.0931912346834580
v -0.0100700000000000 -0.0054590000000000 -0.0038030000000000
vn -0.2926437987025772 -2.9240000204474916 -4.8187002083297550
v -0.0137370000000000 -0.0025390000000000 -0.0081460000000000
vn 0.6767478007841650 -1.4951642645028387 -1.9933381949753330
v -0.0015770000000000 -0.0083520000000000 -0.0097700000000000
vn -2.5003999858235204 -1.2052068505674209 2.9954866485773390
v -0.0335690000000000 0.0012450000000000 0.0113450000000000
vn -0.7797137611754077 -2.1225628445211981 -5.3941540085687931
v -0.0293640000000000 -0.0002490000000000 -0.0077480000000000
vn -0.9514654723320051 -5.0040078388104847 -2.8972926732474917
v -0.0294560000000000 -0.0045430000000000 -0.0040020000000000
vn -3.1674890088379000 -2.5943830563554373 -1.2406335496101395
v -0.0341910000000000 -0.0036080000000000 -0.0033590000000000
vn -2.9884474208756346 -1.0866902101082228 -2.7253709305100138
v -0.0344710000000000 0.0006940000000000 -0.0071120000000000
vn -1.8258099686732712 -5.8212617081653235 1.1234852388661927
v -0.0045040000000000 -0.0078610000000000 0.0018330000000000
vn -1.2968137812883220 -4.4940221270495897 3.7615624773833209
v -0.0024690000000000 -0.0060980000000000 0.0077850000000000
vn -0.6123739071307516 -4.9178703475290924 3.3608686807511892
v -0.0095110000000000 -0.0048980000000000 0.0070440000000000
vn -1.0664918335166427 -6.1129707814214953 0.3763718336590737
v -0.0101280000000000 -0.0059460000000000 0.0012850000000000
vn -0.7466584141213866 -1.3569840332495102 5.7935908399807676
v -0.0036590000000000 -0.0002490000000000 0.0111190000000000
vn -0.0121367931448115 -1.7875450621408333 5.7375170751036997
v -0.0098780000000000 0.0002280000000000 0.0108000000000000
vn -0.4320396153474174 1.5215119356326248 -5.7677116487943803
v -0.0293120000000000 0.0063710000000000 -0.0079480000000000
vn -0.2863113939925699 4.8602938929822157 -2.8678871463404958
v -0.0292960000000000 0.0128110000000000 -0.0037470000000000
vn -0.3197682106090078 4.1692638232771042 -3.8645329982227921
v -0.0141670000000000 0.0120120000000000 -0.0057560000000000
vn -0.1949304197001709 0.9333559724945699 -6.0695046416418741
v -0.0162040000000000 0.0047000000000000 -0.0085480000000000
vn 1.7011758091495615 2.2700986267932435 -2.9841795561534123
v -0.0030110000000000 0.0115740000000000 -0.0076440000000000
vn -0.1221090335331200 -1.4444942314559728 5.8390990118464217
v -0.0286110000000000 0.0016030000000000 0.0115330000000000
vn -0.8157916076245560 -5.7936124844829902 0.3322561822494683
v -0.0286600000000000 -0.0061730000000000 0.0024920000000000
vn -0.6019519031564150 -4.3235615336137068 3.6752370595329591
v -0.0284910000000000 -0.0040250000000000 0.0085130000000000
vn -0.3344763451974377 6.0502997625479225 0.4381011213287380
v -0.0298150000000000 0.0135280000000000 0.0019140000000000
vn -2.4558190772467587 2.2546257656072424 -1.3055432828401088
v -0.0350800000000000 0.0124760000000000 -0.0034420000000000
vn -2.7544665459109283 0.7363291291192108 -2.8425351184854000
v -0.0346490000000000 0.0067700000000000 -0.0073790000000000
vn -0.1978588338904475 2.1001048354616869 5.7398990092521291
v -0.0038710000000000 0.0062300000000000 0.0105000000000000
vn 2.0946720526863452 2.1120110981750573 0.9430056351321610
v 0.0038370000000000 0.0119580000000000 0.0073440000000000
vn -0.0832909688948939 4.8241767194789738 3.7258585666006665
v -0.0043060000000000 0.0118940000000000 0.0064330000000000
vn -0.1589027566838399 5.9173010103479990 0.1690727422589722
v -0.0118070000000000 0.0142700000000000 0.0008170000000000
vn -0.2991414294567765 0.5606929997792288 -6.1020822127794929
v -0.0089520000000000 0.0033810000000000 -0.0091430000000000
vn 0.9906976201826362 5.3606010999379610 -0.2425792913015551
v -0.0036720000000000 0.0145630000000000 0.0001780000000000
# 47 vertices, 0 vertices normals

f 11//11 12//12 14//14
f 14//14 12//12 13//13
f 16//16 17//17 15//15
f 15//15 17//17 18//18
f 22//22 23//23 21//21
f 21//21 23//23 24//24
f 26//26 27//27 25//25
f 25//25 27//27 28//28
f 30//30 27//27 29//29
f 29//29 27//27 26//26
f 32//32 33//33 31//31
f 31//31 33//33 34//34
f 36//36 12//12 20//20
f 20//20 12//12 3//3
f 25//25 28//28 16//16
f 16//16 28//28 17//17
f 23//23 22//22 1//1
f 1//1 22//22 37//37
f 38//38 36//36 2//2
f 2//2 36//36 20//20
f 39//39 32//32 7//7
f 7//7 32//32 40//40
f 31//31 41//41 32//32
f 32//32 41//41 40//40
f 11//11 39//39 4//4
f 4//4 39//39 7//7
f 5//5 25//25 10//10
f 10//10 25//25 16//16
f 6//6 26//26 5//5
f 5//5 26//26 25//25
f 29//29 26//26 9//9
f 9//9 26//26 6//6
f 9//9 8//8 29//29
f 29//29 8//8 42//42
f 8//8 43//43 42//42
f 42//42 43//43 44//44
f 39//39 11//11 45//45
f 45//45 11//11 14//14
f 31//31 34//34 21//21
f 21//21 34//34 18//18
f 43//43 47//47 44//44
f 37//37 38//38 1//1
f 1//1 38//38 2//2
f 3//3 12//12 4//4
f 4//4 12//12 11//11
f 21//21 24//24 31//31
f 31//31 24//24 41//41
f 15//15 19//19 16//16
f 16//16 19//19 10//10
f 45//45 47//47 33//33
f 33//33 47//47 35//35
f 30//30 13//13 36//36
f 36//36 13//13 12//12
f 14//14 13//13 44//44
f 44//44 13//13 42//42
f 17//17 22//22 18//18
f 18//18 22//22 21//21
f 28//28 27//27 37//37
f 37//37 27//27 38//38
f 27//27 30//30 38//38
f 38//38 30//30 36//36
f 34//34 33//33 46//46
f 46//46 33//33 35//35
f 28//28 37//37 17//17
f 17//17 37//37 22//22
f 14//14 44//44 45//45
f 45//45 44//44 47//47
f 34//34 46//46 18//18
f 18//18 46//46 15//15
f 45//45 33//33 39//39
f 39//39 33//33 32//32
f 13//13 30//30 42//42
f 42//42 30//30 29//29
f 41//41 24//24 23//23
f 41//41 23//23 1//1
f 40//40 41//41 1//1
f 40//40 1//1 2//2
f 40//40 2//2 20//20
f 40//40 20//20 3//3
f 40//40 3//3 4//4
f 7//7 40//40 4//4
f 35//35 47//47 43//43
f 19//19 15//15 46//46
f 19//19 46//46 35//35
f 19//19 35//35 43//43
f 8//8 9//9 6//6
f 43//43 8//8 6//6
f 5//5 10//10 19//19
f 19//19 43//43 6//6
f 5//5 19//19 6//6
# 90 faces, 0 coords texture

# End of File
