####
#
# OBJ File Generated by Meshlab
#
####
# Object index3_vis.obj
#
# Vertices: 62
# Faces: 120
#
####
vn 2.2749995960528340 2.8446736995493698 -1.8500300992733243
v 0.0003170000000000 0.0065490000000000 -0.0045250000000000
vn 2.1766773935711772 2.9550088275474367 0.3387032623205127
v 0.0009750000000000 0.0078410000000000 0.0011170000000000
vn 2.0428267063022894 2.7609295049825784 2.9707655912372068
v -0.0001260000000000 0.0050650000000000 0.0065280000000000
vn 2.2027762171102903 0.7219937196133759 4.2058766570201911
v 0.0001160000000000 0.0008950000000000 0.0083370000000000
vn 2.6969834032558246 -1.2416261164764357 2.7114454686521423
v 0.0016550000000000 -0.0031690000000000 0.0071710000000000
vn 1.8784796247749556 2.0203373716063244 -4.0904707156759263
v -0.0009260000000000 0.0036200000000000 -0.0074370000000000
vn 1.6437855299591473 -0.0800130194201684 -5.2769140348111012
v -0.0013190000000000 -0.0000310000000000 -0.0081920000000000
vn 2.3257983453021254 -1.7328919542044803 -2.5919240359372901
v 0.0013880000000000 -0.0053630000000000 -0.0062440000000000
vn -0.4692681656228839 2.6169911312562699 -5.4441772201291583
v -0.0057440000000000 0.0026150000000000 -0.0075220000000000
vn -0.8589857456377016 5.1591376503744160 -2.7152272434920057
v -0.0080090000000000 0.0059630000000000 -0.0042070000000000
vn -1.0502893595798011 2.4038284305901052 5.3088651055718117
v -0.0139040000000000 0.0019640000000000 0.0071510000000000
vn -0.5308649427266862 3.9922255003115805 4.2457082449288936
v -0.0088330000000000 0.0045680000000000 0.0062960000000000
vn -1.2312210121155243 5.1892200652855269 2.7526295593204644
v -0.0110490000000000 0.0051490000000000 0.0049380000000000
vn -1.3244498748751348 5.0095434210593952 3.1479735694014814
v -0.0157380000000000 0.0037000000000000 0.0050300000000000
vn -1.6593976984332850 4.5557897422671019 3.3984708982816545
v -0.0207240000000000 0.0031660000000000 0.0039780000000000
vn -1.7094978143545552 0.8471836793341320 4.7613746045326542
v -0.0193450000000000 0.0009760000000000 0.0064950000000000
vn -1.5148699561201027 6.0137569026807096 0.3172440133952108
v -0.0087890000000000 0.0065280000000000 0.0012450000000000
vn -1.1776358860250615 6.0847669898974166 0.4116873606478711
v -0.0151420000000000 0.0049330000000000 0.0006970000000000
vn -1.1158767016964639 5.5903502086445487 -2.3335605357142697
v -0.0148560000000000 0.0044160000000000 -0.0034870000000000
vn -0.8079253364276425 5.0402437358736316 -2.7799262439348613
v -0.0202890000000000 0.0039480000000000 -0.0036760000000000
vn -1.0631071299387731 5.8046039297719556 0.3737369627680079
v -0.0207770000000000 0.0046050000000000 0.0000790000000000
vn -1.4138493133952390 5.7635374806253452 -1.5602364892373379
v -0.0105920000000000 0.0058080000000000 -0.0027460000000000
vn -0.8158639287639262 5.8331094296383492 0.6311723425606486
v -0.0066900000000000 0.0070970000000000 0.0011750000000000
vn -3.7725174971027347 0.0642300721793243 3.7531673150872642
v -0.0232630000000000 0.0007180000000000 0.0040490000000000
vn -3.0331391839234145 3.1720189608849600 2.5835565637040010
v -0.0233950000000000 0.0030070000000000 0.0028740000000000
vn -3.2975390126987874 4.5776794914798344 -0.1386825152569794
v -0.0236220000000000 0.0036490000000000 -0.0004100000000000
vn -4.8844106684808404 0.8633697610651582 0.3803168929141207
v -0.0254820000000000 0.0011840000000000 -0.0005010000000000
vn -0.3042257165784675 0.1805301613378177 5.7537414434910925
v -0.0048550000000000 0.0003740000000000 0.0084430000000000
vn -0.9039745445772813 -0.5859511452843927 5.4738072381666871
v -0.0132720000000000 -0.0005130000000000 0.0078560000000000
vn -2.0022424054643588 -2.6529021509112440 4.9391254221114469
v -0.0186710000000000 -0.0020990000000000 0.0057450000000000
vn -3.7759469328046360 -2.8502406555763717 3.2065400663051387
v -0.0226410000000000 -0.0020190000000000 0.0033490000000000
vn -0.7663122117535311 -3.9531369884532350 4.5077169181766941
v -0.0134090000000000 -0.0041260000000000 0.0058270000000000
vn -1.9127185443383126 -4.5899255121698062 3.6612084159108611
v -0.0179540000000000 -0.0043420000000000 0.0039380000000000
vn -3.3722854190389944 -4.3872972025669679 2.2887793098438114
v -0.0212390000000000 -0.0044420000000000 0.0014960000000000
vn -0.6866370992007043 -5.4973417429022877 2.2794599677854475
v -0.0134620000000000 -0.0066560000000000 0.0023790000000000
vn -1.3730417899446350 -5.6332228209192197 2.1524199679674298
v -0.0176260000000000 -0.0059850000000000 0.0012310000000000
vn 0.1908909756878456 -5.4842781719086240 2.5322771106873945
v -0.0013420000000000 -0.0061470000000000 0.0038930000000000
vn 0.1120543858537926 -3.2834349486132757 4.8817379756351231
v -0.0017060000000000 -0.0034900000000000 0.0072910000000000
vn -2.4233077825807268 -4.3420237320085029 1.2518369165753929
v -0.0201910000000000 -0.0059420000000000 0.0003800000000000
vn -5.0420663515540705 -2.0063245293618306 -0.1509430386532801
v -0.0251240000000000 -0.0009420000000000 -0.0013130000000000
vn -0.9942779328110487 4.1347084178849105 -4.3731789777689567
v -0.0128970000000000 0.0030520000000000 -0.0063010000000000
vn -1.1753344749604306 3.7653001010546236 -4.8299631885627923
v -0.0196570000000000 0.0015540000000000 -0.0058510000000000
vn -0.5223407255406043 2.0214270843272839 -5.8119718053875706
v -0.0123990000000000 0.0010610000000000 -0.0075060000000000
vn -1.5218829572677117 1.1053670257312711 -5.2290009707977783
v -0.0191460000000000 -0.0002840000000000 -0.0073840000000000
vn -2.9385926854129316 1.5914082059572277 -2.9779446493626343
v -0.0239830000000000 0.0015450000000000 -0.0051190000000000
vn -2.8383245023679193 4.7100017702804458 -1.9981305147634190
v -0.0230510000000000 0.0032210000000000 -0.0033130000000000
vn 2.2852565748355875 -1.2271558348586866 0.6691787690102803
v 0.0029490000000000 -0.0061360000000000 0.0032880000000000
vn 2.6236929324998424 -2.3380817384371584 -0.5903207129868041
v 0.0026280000000000 -0.0069510000000000 -0.0023940000000000
vn 0.2634856458608306 -6.0077607835670364 -0.5822394323546964
v -0.0011680000000000 -0.0071610000000000 -0.0021530000000000
vn -0.5339353650554914 -5.6746009239966240 -0.9093626350067949
v -0.0131820000000000 -0.0074820000000000 -0.0022810000000000
vn 0.2116920872168400 -4.0901716964934511 -3.9967817019111336
v -0.0024940000000000 -0.0057100000000000 -0.0061400000000000
vn -0.0097091784820337 -0.6442116920756940 -5.9710159856613725
v -0.0059880000000000 -0.0010190000000000 -0.0081920000000000
vn -0.3885195006603082 -0.8123895444811067 -5.9636349426094446
v -0.0129700000000000 -0.0017890000000000 -0.0079030000000000
vn -0.5951892385556798 -3.6619549386129027 -4.4155102632953946
v -0.0129730000000000 -0.0049930000000000 -0.0067050000000000
vn -1.1155649170946000 -2.2873327924006333 -5.2928695247000874
v -0.0181890000000000 -0.0027320000000000 -0.0072170000000000
vn -0.9412592780055574 -4.4806756746731509 -4.0346464902168515
v -0.0175710000000000 -0.0047530000000000 -0.0057150000000000
vn -1.4163673616814247 -5.6396839500751490 -1.0774949249487857
v -0.0176720000000000 -0.0065690000000000 -0.0023620000000000
vn -3.1803049842213120 -3.0223997516551444 -3.5239422203433817
v -0.0218110000000000 -0.0032770000000000 -0.0054260000000000
vn -3.2809948039535777 -0.7887676640738652 -3.9182036017426967
v -0.0232790000000000 -0.0006270000000000 -0.0057040000000000
vn -4.1075236122369443 -4.0166199775136091 -0.4092589185786594
v -0.0231060000000000 -0.0036710000000000 -0.0019260000000000
vn -2.2286997063097225 -4.5168932851674697 -2.9063421474633944
v -0.0203540000000000 -0.0046360000000000 -0.0049640000000000
vn -3.2466373060521341 -5.2631225183377852 -0.7684402050777994
v -0.0207650000000000 -0.0050790000000000 -0.0020420000000000
# 62 vertices, 0 vertices normals

f 9//9 10//10 6//6
f 6//6 10//10 1//1
f 12//12 13//13 11//11
f 11//11 13//13 14//14
f 15//15 16//16 14//14
f 14//14 16//16 11//11
f 14//14 13//13 18//18
f 18//18 13//13 17//17
f 19//19 20//20 18//18
f 18//18 20//20 21//21
f 17//17 22//22 18//18
f 18//18 22//22 19//19
f 23//23 10//10 17//17
f 17//17 10//10 22//22
f 21//21 15//15 18//18
f 18//18 15//15 14//14
f 24//24 25//25 27//27
f 27//27 25//25 26//26
f 25//25 24//24 15//15
f 15//15 24//24 16//16
f 17//17 13//13 23//23
f 23//23 13//13 12//12
f 12//12 3//3 23//23
f 23//23 3//3 2//2
f 12//12 28//28 3//3
f 3//3 28//28 4//4
f 11//11 29//29 12//12
f 12//12 29//29 28//28
f 29//29 11//11 30//30
f 30//30 11//11 16//16
f 10//10 23//23 1//1
f 1//1 23//23 2//2
f 24//24 31//31 16//16
f 16//16 31//31 30//30
f 29//29 30//30 32//32
f 32//32 30//30 33//33
f 30//30 31//31 33//33
f 33//33 31//31 34//34
f 32//32 33//33 35//35
f 35//35 33//33 36//36
f 35//35 37//37 32//32
f 32//32 37//37 38//38
f 39//39 36//36 34//34
f 34//34 36//36 33//33
f 29//29 32//32 28//28
f 28//28 32//32 38//38
f 28//28 38//38 4//4
f 4//4 38//38 5//5
f 31//31 24//24 40//40
f 40//40 24//24 27//27
f 19//19 22//22 41//41
f 41//41 22//22 10//10
f 41//41 42//42 19//19
f 19//19 42//42 20//20
f 10//10 9//9 41//41
f 41//41 9//9 43//43
f 42//42 41//41 44//44
f 44//44 41//41 43//43
f 42//42 45//45 20//20
f 20//20 45//45 46//46
f 47//47 37//37 48//48
f 48//48 37//37 49//49
f 37//37 35//35 49//49
f 49//49 35//35 50//50
f 48//48 49//49 8//8
f 8//8 49//49 51//51
f 47//47 5//5 37//37
f 37//37 5//5 38//38
f 52//52 7//7 51//51
f 51//51 7//7 8//8
f 52//52 9//9 7//7
f 7//7 9//9 6//6
f 53//53 43//43 52//52
f 52//52 43//43 9//9
f 53//53 52//52 54//54
f 54//54 52//52 51//51
f 55//55 53//53 56//56
f 56//56 53//53 54//54
f 49//49 50//50 51//51
f 51//51 50//50 54//54
f 50//50 57//57 54//54
f 54//54 57//57 56//56
f 43//43 53//53 44//44
f 44//44 53//53 55//55
f 59//59 44//44 58//58
f 58//58 44//44 55//55
f 58//58 61//61 60//60
f 60//60 61//61 62//62
f 58//58 55//55 61//61
f 61//61 55//55 56//56
f 58//58 60//60 59//59
f 59//59 60//60 40//40
f 59//59 40//40 45//45
f 45//45 40//40 27//27
f 45//45 42//42 59//59
f 59//59 42//42 44//44
f 35//35 36//36 50//50
f 50//50 36//36 57//57
f 62//62 57//57 39//39
f 39//39 57//57 36//36
f 62//62 61//61 57//57
f 57//57 61//61 56//56
f 60//60 62//62 34//34
f 34//34 62//62 39//39
f 34//34 31//31 60//60
f 60//60 31//31 40//40
f 15//15 21//21 25//25
f 25//25 21//21 26//26
f 26//26 46//46 27//27
f 27//27 46//46 45//45
f 26//26 21//21 46//46
f 46//46 21//21 20//20
f 8//8 7//7 6//6
f 8//8 6//6 1//1
f 8//8 1//1 2//2
f 48//48 8//8 2//2
f 3//3 4//4 5//5
f 2//2 3//3 5//5
f 48//48 2//2 5//5
f 48//48 5//5 47//47
# 120 faces, 0 coords texture

# End of File
