####
#
# OBJ File Generated by Meshlab
#
####
# Object pinky3_vis.obj
#
# Vertices: 61
# Faces: 118
#
####
vn 3.0044001250547474 1.3796451001561698 -1.5994534879203175
v 0.0035910000000000 0.0032560000000000 -0.0062980000000000
vn 1.8151980023672891 2.2458200756635800 -0.0207343009532056
v 0.0021000000000000 0.0075810000000000 -0.0022930000000000
vn 0.3755426896586074 3.6669845249672184 2.0428155400186072
v -0.0020730000000000 0.0072600000000000 0.0022300000000000
vn 0.4183993422697747 2.0366588579252149 3.6138841611131398
v -0.0030740000000000 0.0047040000000000 0.0047750000000000
vn 0.5167078544693534 0.3421466442271938 3.9963611584279506
v -0.0033040000000000 0.0016530000000000 0.0057440000000000
vn 3.6182478106775449 -0.7918107328176793 -1.6078792498373780
v 0.0036910000000000 -0.0012060000000000 -0.0065510000000000
vn 3.8359461200360307 -2.5080103250447574 -0.7819689061752152
v 0.0028880000000000 -0.0037220000000000 -0.0048710000000000
vn 3.0983794635344788 -2.6903037325349093 1.3122109158142834
v 0.0018760000000000 -0.0050980000000000 -0.0014660000000000
vn 2.3981546190751390 -1.0397967259848797 -5.2996591329413967
v -0.0002780000000000 -0.0014340000000000 -0.0084560000000000
vn 1.4786944456571225 3.0960209921601827 -4.7325804861200682
v -0.0024460000000000 0.0028690000000000 -0.0084570000000000
vn -3.4391769745396754 3.9108605430508607 3.4263182064435744
v -0.0151800000000000 0.0016200000000000 -0.0039680000000000
vn -3.0241276510895934 4.8614208176838556 2.4391559003844820
v -0.0119080000000000 0.0027380000000000 -0.0018700000000000
vn -2.2935012325588966 5.7264046062354783 1.0388746059836420
v -0.0114660000000000 0.0032410000000000 -0.0028800000000000
vn -2.7125289225582430 4.4995246806788636 2.3262901859046266
v -0.0151020000000000 0.0025190000000000 -0.0046360000000000
vn -2.6954733056420181 5.1851363942811552 1.1138067900353574
v -0.0073160000000000 0.0052180000000000 -0.0005530000000000
vn -1.9982486102191150 5.8584199779437434 -0.2441700945905645
v -0.0077800000000000 0.0049980000000000 -0.0021620000000000
vn -1.8143900248235418 5.6133016328485921 -2.0023786820244895
v -0.0050330000000000 0.0052860000000000 -0.0044670000000000
vn -0.7854927784459946 5.6616814636392769 -1.6812483048634992
v -0.0095720000000000 0.0040700000000000 -0.0067000000000000
vn 0.8830402753339972 3.9246284570760399 -4.7059365627277510
v -0.0075110000000000 0.0010040000000000 -0.0105920000000000
vn 0.9194259286782301 3.6616443500413309 -4.8349476699308864
v -0.0113700000000000 0.0004440000000000 -0.0119360000000000
vn -0.2833570156570701 5.4585948766230858 -1.6496000664146768
v -0.0128150000000000 0.0034810000000000 -0.0085520000000000
vn 0.2548614655262943 4.6021183734736999 -3.9336720468275730
v -0.0044030000000000 0.0034810000000000 -0.0082430000000000
vn -2.4497016498450686 5.1968802665288640 0.8376329790624073
v -0.0168880000000000 0.0024890000000000 -0.0067020000000000
vn -3.8797749075681258 2.7494319855841427 0.8277876350209258
v -0.0180610000000000 0.0017690000000000 -0.0065310000000000
vn -1.0977411513335469 5.2733224344406713 -2.1803071375403387
v -0.0034520000000000 0.0063010000000000 -0.0038900000000000
vn -3.1854112682027793 2.6304436104022724 4.1628900250694230
v -0.0072290000000000 0.0030120000000000 0.0029480000000000
vn -3.4980105356170452 2.4029649093106276 4.0353631621849129
v -0.0129900000000000 0.0009600000000000 -0.0004760000000000
vn -4.2188469673156233 1.8872543196666138 3.3997267747414939
v -0.0168520000000000 0.0000520000000000 -0.0035380000000000
vn -5.5603328459229884 0.1470622874744653 0.2939276706771604
v -0.0185320000000000 -0.0004370000000000 -0.0068500000000000
vn -3.3370427983328463 -0.7510268832239565 5.0182567215164324
v -0.0119810000000000 -0.0012490000000000 0.0005010000000000
vn -4.0711530370707818 -1.3526267491215014 3.3709537324963188
v -0.0167310000000000 -0.0022420000000000 -0.0030440000000000
vn -4.6760341909680943 -2.1134215810232195 0.6672192830905722
v -0.0182000000000000 -0.0027440000000000 -0.0063190000000000
vn -2.2998287902375725 -3.5164054452427247 4.0730011955770911
v -0.0104490000000000 -0.0042360000000000 0.0002630000000000
vn -3.2625883127944237 -3.9003680758290518 3.0034077381460813
v -0.0151010000000000 -0.0043710000000000 -0.0033280000000000
vn -1.3360177224363579 -3.5539534893822822 4.4299731381381182
v -0.0044530000000000 -0.0031020000000000 0.0037200000000000
vn -2.8290972232034415 -0.5396685578167102 5.3139288180019157
v -0.0063040000000000 0.0000150000000000 0.0040340000000000
vn -3.9861630074468906 -4.5512048814271262 1.4327233233483654
v -0.0168010000000000 -0.0038660000000000 -0.0059580000000000
vn -3.7912831284588302 2.3663494708209072 -2.7722572592864974
v -0.0170930000000000 0.0015490000000000 -0.0103150000000000
vn -4.9613840095573529 -0.7848288232969933 -2.6281451718694355
v -0.0176890000000000 -0.0013430000000000 -0.0099350000000000
vn -1.6875203654646984 4.2305754255493087 -2.5608957297690749
v -0.0159000000000000 0.0025580000000000 -0.0102780000000000
vn 1.8606737446454642 1.5086817798739967 -5.5100651159539460
v -0.0067450000000000 -0.0001090000000000 -0.0110730000000000
vn 0.7704154330078219 0.4792938055160857 -5.5767815334846222
v -0.0114470000000000 -0.0010180000000000 -0.0126970000000000
vn 2.0445963893449859 -1.5386067951763700 -5.1751708388633304
v -0.0060040000000000 -0.0025880000000000 -0.0109270000000000
vn 0.3165549241743135 -2.3674383842963462 -5.1601736017597615
v -0.0115910000000000 -0.0031830000000000 -0.0123030000000000
vn -1.6132440435818103 0.6686836584685711 -4.8944749550188309
v -0.0149340000000000 -0.0003770000000000 -0.0125780000000000
vn -0.1664967472692916 3.6839311661970804 -4.6361114922357753
v -0.0140760000000000 0.0011120000000000 -0.0118600000000000
vn 1.1748971984004735 -1.6111696735484209 3.8881865082756955
v -0.0026700000000000 -0.0021110000000000 0.0049080000000000
vn 0.9318139286851933 -5.0938468746846874 2.7155764686997972
v -0.0020500000000000 -0.0052300000000000 0.0009530000000000
vn -0.5619239166881909 -5.5801253089044467 1.7970665309358989
v -0.0082400000000000 -0.0064420000000000 -0.0021480000000000
vn 1.5265270299506719 -5.7081440363085285 -0.6251883345055780
v -0.0001530000000000 -0.0057010000000000 -0.0030390000000000
vn 2.3072189451059413 -4.2703469585672282 -3.6033203027636200
v 0.0002940000000000 -0.0039690000000000 -0.0065180000000000
vn 1.7083587182975601 -4.3796612118556473 -3.7742076869578360
v -0.0060000000000000 -0.0048160000000000 -0.0092580000000000
vn 0.8112240606123622 -5.7246488130010560 -1.3371090769287117
v -0.0067240000000000 -0.0065460000000000 -0.0063790000000000
vn -0.2969094332660659 -4.3253410185100583 -3.8194067516259596
v -0.0120490000000000 -0.0049070000000000 -0.0109620000000000
vn -0.6835096619606416 -5.5595776957774499 -1.6160662920246018
v -0.0122390000000000 -0.0063600000000000 -0.0082500000000000
vn -1.9222180939125746 -5.3138316363221278 0.9877373819554801
v -0.0133400000000000 -0.0063170000000000 -0.0052170000000000
vn -2.9039533701620419 -3.9919940620677425 -3.3601949819778314
v -0.0156820000000000 -0.0038220000000000 -0.0104850000000000
vn -2.6098749537490766 -2.0683015275999823 -4.2858056553316395
v -0.0157050000000000 -0.0024510000000000 -0.0118250000000000
vn -4.7217376621282501 -3.1514203711260453 -1.8475171242441850
v -0.0172450000000000 -0.0031870000000000 -0.0089800000000000
vn -2.8052503816219274 -4.9210647806334649 -1.8404290545359847
v -0.0153120000000000 -0.0050050000000000 -0.0089220000000000
vn -3.7389378277445715 -4.8557736081645526 -0.2541974701979918
v -0.0160540000000000 -0.0047050000000000 -0.0075290000000000
# 61 vertices, 0 vertices normals

f 10//10 1//1 9//9
f 9//9 1//1 6//6
f 11//11 12//12 14//14
f 14//14 12//12 13//13
f 15//15 16//16 12//12
f 12//12 16//16 13//13
f 13//13 16//16 18//18
f 18//18 16//16 17//17
f 18//18 19//19 21//21
f 21//21 19//19 20//20
f 17//17 22//22 18//18
f 18//18 22//22 19//19
f 21//21 14//14 18//18
f 18//18 14//14 13//13
f 14//14 23//23 11//11
f 11//11 23//23 24//24
f 16//16 15//15 17//17
f 17//17 15//15 25//25
f 15//15 3//3 25//25
f 25//25 3//3 2//2
f 15//15 26//26 3//3
f 3//3 26//26 4//4
f 27//27 26//26 12//12
f 12//12 26//26 15//15
f 28//28 27//27 11//11
f 11//11 27//27 12//12
f 17//17 25//25 22//22
f 22//22 25//25 10//10
f 10//10 25//25 1//1
f 1//1 25//25 2//2
f 29//29 28//28 24//24
f 24//24 28//28 11//11
f 30//30 27//27 31//31
f 31//31 27//27 28//28
f 29//29 32//32 28//28
f 28//28 32//32 31//31
f 33//33 30//30 34//34
f 34//34 30//30 31//31
f 30//30 33//33 36//36
f 36//36 33//33 35//35
f 32//32 37//37 31//31
f 31//31 37//37 34//34
f 27//27 30//30 26//26
f 26//26 30//30 36//36
f 26//26 36//36 4//4
f 4//4 36//36 5//5
f 24//24 38//38 29//29
f 29//29 38//38 39//39
f 24//24 23//23 38//38
f 38//38 23//23 40//40
f 19//19 22//22 41//41
f 41//41 22//22 10//10
f 19//19 41//41 20//20
f 20//20 41//41 42//42
f 41//41 10//10 43//43
f 43//43 10//10 9//9
f 42//42 41//41 44//44
f 44//44 41//41 43//43
f 45//45 46//46 42//42
f 42//42 46//46 20//20
f 40//40 46//46 38//38
f 38//38 46//46 45//45
f 35//35 48//48 47//47
f 33//33 49//49 35//35
f 35//35 49//49 48//48
f 8//8 48//48 50//50
f 47//47 5//5 35//35
f 35//35 5//5 36//36
f 51//51 7//7 50//50
f 50//50 7//7 8//8
f 7//7 51//51 6//6
f 6//6 51//51 9//9
f 51//51 52//52 9//9
f 9//9 52//52 43//43
f 52//52 51//51 53//53
f 53//53 51//51 50//50
f 54//54 52//52 55//55
f 55//55 52//52 53//53
f 48//48 49//49 50//50
f 50//50 49//49 53//53
f 49//49 56//56 53//53
f 53//53 56//56 55//55
f 52//52 54//54 43//43
f 43//43 54//54 44//44
f 58//58 44//44 57//57
f 57//57 44//44 54//54
f 57//57 60//60 59//59
f 59//59 60//60 61//61
f 57//57 54//54 60//60
f 60//60 54//54 55//55
f 57//57 59//59 58//58
f 58//58 59//59 39//39
f 58//58 39//39 45//45
f 45//45 39//39 38//38
f 45//45 42//42 58//58
f 58//58 42//42 44//44
f 49//49 33//33 56//56
f 56//56 33//33 34//34
f 61//61 56//56 37//37
f 37//37 56//56 34//34
f 61//61 60//60 56//56
f 56//56 60//60 55//55
f 59//59 61//61 32//32
f 32//32 61//61 37//37
f 32//32 29//29 59//59
f 59//59 29//29 39//39
f 14//14 21//21 23//23
f 23//23 21//21 40//40
f 40//40 21//21 46//46
f 46//46 21//21 20//20
f 47//47 48//48 8//8
f 5//5 47//47 8//8
f 2//2 3//3 4//4
f 2//2 4//4 5//5
f 2//2 5//5 8//8
f 2//2 8//8 7//7
f 2//2 7//7 6//6
f 2//2 6//6 1//1
# 118 faces, 0 coords texture

# End of File
