####
#
# OBJ File Generated by Meshlab
#
####
# Object pinky1_vis.obj
#
# Vertices: 38
# Faces: 72
#
####
vn -0.9675714740220550 1.1315150173641177 2.9647964768688624
v -0.0039860000000000 0.0065400000000000 0.0087520000000000
vn 3.1423121359129005 0.0808492849251823 -0.6395613147456174
v 0.0113580000000000 0.0022960000000000 -0.0046570000000000
vn 2.0487235420174015 1.7103708193276832 0.5186684886021461
v 0.0088750000000000 0.0102380000000000 0.0005150000000000
vn 1.0126478124869436 2.0702388904626305 2.4038063746615999
v 0.0026310000000000 0.0099670000000000 0.0064710000000000
vn -3.3950617913858512 -2.0762502606955717 -0.7057642319185733
v -0.0205710000000000 -0.0048310000000000 -0.0118490000000000
vn -4.0348995437262634 -2.0160856396167186 1.3886330610297337
v -0.0217590000000000 -0.0024110000000000 -0.0087920000000000
vn -3.5385034594219822 2.1569964992302753 0.3939650037310015
v -0.0210180000000000 0.0061060000000000 -0.0090210000000000
vn -2.6643549975307952 3.6324897920728856 -0.8193892970693324
v -0.0182210000000000 0.0088560000000000 -0.0115880000000000
vn -1.9665272666409093 3.4473944831811747 -3.0288857930378166
v -0.0152620000000000 0.0080390000000000 -0.0160280000000000
vn -1.3975103867034120 5.4716851014477781 0.9390940828585590
v -0.0156110000000000 0.0093580000000000 -0.0097880000000000
vn -3.1150464349636211 3.7179658133538585 3.7206838029058797
v -0.0179800000000000 0.0062060000000000 -0.0068060000000000
vn -3.8391915642925269 3.9921329634332805 2.7213871769806413
v -0.0063150000000000 0.0063430000000000 0.0032340000000000
vn -1.4815426628992669 5.7894697489120830 1.0394158130707762
v -0.0026040000000000 0.0097180000000000 0.0006910000000000
vn 3.3533910690606197 -3.2793599857055922 -2.1815043181373581
v 0.0072700000000000 -0.0048350000000000 -0.0046030000000000
vn 1.7774055168722813 -3.0062962382919336 0.7497834669220176
v 0.0049310000000000 -0.0082610000000000 -0.0002830000000000
vn 0.1458669499084088 -6.0262711599719871 -1.3276912261536824
v -0.0015070000000000 -0.0065450000000000 -0.0043350000000000
vn 2.0068980011131412 -4.5612383690225125 -3.5615742605961431
v 0.0013130000000000 -0.0046520000000000 -0.0074420000000000
vn -3.7894823842500318 0.2764221571564863 0.9433208234411503
v -0.0224670000000000 0.0015660000000000 -0.0078570000000000
vn 2.1409171642154541 -4.6135283159243539 -3.0888733576830862
v -0.0110580000000000 -0.0051200000000000 -0.0164100000000000
vn 0.1110404457553770 -5.9845426383998772 -0.4106130813036094
v -0.0140870000000000 -0.0067740000000000 -0.0131880000000000
vn -2.5467456965655160 -2.9399497498619418 -1.3442050299648614
v -0.0183500000000000 -0.0064330000000000 -0.0148950000000000
vn -1.2521200868818894 -2.1016133762467519 -2.7096410162747562
v -0.0158530000000000 -0.0055160000000000 -0.0187360000000000
vn 0.4459511631829242 -3.1944771860043599 2.4364365799773999
v 0.0005530000000000 -0.0077350000000000 0.0032630000000000
vn -1.8376526209205233 -3.8550726211852093 3.5889717414760218
v -0.0059720000000000 -0.0046750000000000 0.0037320000000000
vn -1.5090927114419910 -5.9869345790747923 0.7636821889957728
v -0.0047690000000000 -0.0062500000000000 -0.0008530000000000
vn -2.7650091479362233 -0.8559101850880300 4.2154129428023870
v -0.0087380000000000 -0.0003580000000000 0.0053250000000000
vn 3.1354052621387534 -1.6979395430073563 -4.7640157860772865
v -0.0097100000000000 -0.0016390000000000 -0.0183060000000000
vn 2.6215209165628282 2.1722797319816110 -4.6295604861798054
v -0.0095490000000000 0.0042190000000000 -0.0181430000000000
vn 3.0838633952854919 1.7019363678074326 -4.3134319785359594
v 0.0047550000000000 0.0040060000000000 -0.0091190000000000
vn 3.1314685788397476 -1.9641477242083933 -4.9507338965090550
v 0.0042510000000000 -0.0007890000000000 -0.0085330000000000
vn -3.8633597447879504 0.4537731669207349 4.5447109933859755
v -0.0196220000000000 0.0017930000000000 -0.0057320000000000
vn -1.8822402996100855 -5.4985157737081849 1.9655644502419582
v -0.0170160000000000 -0.0057120000000000 -0.0100120000000000
vn -3.2084229388015069 -3.6421986974785616 3.5823558074356932
v -0.0188230000000000 -0.0030520000000000 -0.0070200000000000
vn 0.6739268521798853 5.0767029702292001 -2.4391697524095588
v -0.0121980000000000 0.0089010000000000 -0.0146030000000000
vn -0.8422817278402366 1.4208381784154671 -3.9831513213109533
v -0.0134610000000000 0.0037350000000000 -0.0201050000000000
vn -0.5453022668979846 -0.6770124766636196 -3.9591465420051670
v -0.0137250000000000 -0.0018220000000000 -0.0206380000000000
vn 1.1999485774507002 5.1386207840950080 -1.9304664911311049
v 0.0014320000000000 0.0099860000000000 -0.0048660000000000
vn 3.3467828282220156 -1.9188365977368176 -4.8830134355275590
v 0.0068810000000000 -0.0014290000000000 -0.0066080000000000
# 38 vertices, 0 vertices normals

f 11//11 12//12 10//10
f 10//10 12//12 13//13
f 14//14 15//15 17//17
f 17//17 15//15 16//16
f 19//19 20//20 22//22
f 22//22 20//20 21//21
f 27//27 28//28 30//30
f 30//30 28//28 29//29
f 18//18 31//31 7//7
f 7//7 31//31 11//11
f 15//15 23//23 16//16
f 16//16 23//23 25//25
f 20//20 32//32 21//21
f 21//21 32//32 5//5
f 33//33 31//31 6//6
f 6//6 31//31 18//18
f 28//28 35//35 34//34
f 34//34 35//35 9//9
f 27//27 36//36 28//28
f 28//28 36//36 35//35
f 34//34 9//9 10//10
f 10//10 9//9 8//8
f 10//10 13//13 34//34
f 34//34 13//13 37//37
f 19//19 27//27 17//17
f 17//17 27//27 30//30
f 32//32 33//33 5//5
f 5//5 33//33 6//6
f 7//7 11//11 8//8
f 8//8 11//11 10//10
f 27//27 19//19 36//36
f 36//36 19//19 22//22
f 3//3 2//2 37//37
f 37//37 2//2 29//29
f 26//26 12//12 31//31
f 31//31 12//12 11//11
f 12//12 1//1 13//13
f 13//13 1//1 4//4
f 17//17 16//16 19//19
f 19//19 16//16 20//20
f 32//32 25//25 33//33
f 33//33 25//25 24//24
f 24//24 26//26 33//33
f 33//33 26//26 31//31
f 38//38 14//14 30//30
f 30//30 14//14 17//17
f 16//16 25//25 20//20
f 20//20 25//25 32//32
f 13//13 4//4 37//37
f 37//37 4//4 3//3
f 37//37 29//29 34//34
f 34//34 29//29 28//28
f 12//12 26//26 1//1
f 30//30 29//29 38//38
f 38//38 29//29 2//2
f 24//24 25//25 23//23
f 14//14 38//38 2//2
f 1//1 26//26 24//24
f 1//1 24//24 23//23
f 15//15 14//14 2//2
f 4//4 1//1 23//23
f 4//4 23//23 15//15
f 4//4 15//15 2//2
f 3//3 4//4 2//2
f 7//7 8//8 9//9
f 7//7 9//9 35//35
f 7//7 35//35 36//36
f 18//18 7//7 36//36
f 18//18 36//36 22//22
f 18//18 22//22 21//21
f 5//5 6//6 18//18
f 5//5 18//18 21//21
# 72 faces, 0 coords texture

# End of File
