####
#
# OBJ File Generated by Meshlab
#
####
# Object ring3_vis.obj
#
# Vertices: 62
# Faces: 120
#
####
vn 2.8949259048568923 2.2944148051319413 -1.6667995677965306
v 0.0010610000000000 0.0050980000000000 -0.0057990000000000
vn 2.1885185450364220 2.8004950790826602 0.5440355175494507
v 0.0002130000000000 0.0074240000000000 -0.0003460000000000
vn 1.4526928049539807 2.7755880850867367 2.8289070326005912
v -0.0023810000000000 0.0058030000000000 0.0045170000000000
vn 1.8039169705654410 0.8344002642487757 3.5828290174347774
v -0.0028820000000000 0.0021550000000000 0.0065590000000000
vn 1.3386582300844263 -0.6526326003065498 4.3135374031490885
v -0.0028320000000000 -0.0012750000000000 0.0066440000000000
vn 3.1880838041100716 0.6261548972801672 -3.7082337000982903
v 0.0004450000000000 0.0012690000000000 -0.0081410000000000
vn 2.8422181154642541 -2.1648485613914543 -4.2108814529172163
v -0.0001540000000000 -0.0025110000000000 -0.0077180000000000
vn 2.9386034389043338 -2.3181003041249273 -0.9046466525308796
v 0.0015370000000000 -0.0057800000000000 -0.0038390000000000
vn 1.4729569364739683 0.6634437839677298 -5.7157020492232737
v -0.0038900000000000 0.0005100000000000 -0.0094290000000000
vn 0.5110967180739037 4.3854273812242592 -3.6890424360433589
v -0.0058430000000000 0.0050760000000000 -0.0075800000000000
vn -2.1238035812690037 3.6910305944056487 4.4187157449938814
v -0.0208870000000000 0.0033420000000000 -0.0006600000000000
vn -1.7100461100456132 4.4205357341627938 3.9382697169035961
v -0.0154450000000000 0.0036880000000000 0.0010850000000000
vn -1.4890416823882258 5.5417342259379314 2.5124126774711018
v -0.0153020000000000 0.0043050000000000 0.0000050000000000
vn -1.1340422829352010 5.2856230735961152 2.8158901631545237
v -0.0207240000000000 0.0045300000000000 -0.0019360000000000
vn -1.3637474008785997 5.0129742923842979 2.8236697890382780
v -0.0091240000000000 0.0057370000000000 0.0018410000000000
vn -1.3503686404242436 5.7676435399858539 1.7038415307031503
v -0.0105790000000000 0.0058760000000000 0.0003960000000000
vn -0.5662296427675469 6.0761145563902161 -0.4835155038197924
v -0.0086400000000000 0.0065970000000000 -0.0028380000000000
vn -0.3032924473663243 5.7547015487657358 -0.6956599633904456
v -0.0146450000000000 0.0060890000000000 -0.0049280000000000
vn 0.3877422977897508 4.8550649934155645 -3.9333703105032720
v -0.0122280000000000 0.0031560000000000 -0.0095280000000000
vn 0.4862582352452763 4.7335243019926407 -3.9677491929509676
v -0.0172520000000000 0.0031830000000000 -0.0104540000000000
vn -0.7516824234612980 5.1848604158704017 -0.9225623840005303
v -0.0198340000000000 0.0060890000000000 -0.0064430000000000
vn -0.3356400518690483 5.4851543427628027 -2.9163260644786293
v -0.0079580000000000 0.0052140000000000 -0.0069440000000000
vn -1.8773879196982921 5.9310862329694682 0.5411736841426922
v -0.0232600000000000 0.0043900000000000 -0.0038910000000000
vn -2.8039172674188384 2.0972432890529444 1.5763474796021972
v -0.0245830000000000 0.0039540000000000 -0.0025670000000000
vn -0.3999069262256809 5.9373327079892908 -0.4823739162826925
v -0.0063130000000000 0.0069550000000000 -0.0023280000000000
vn -1.8141431170267921 1.8224469054364623 5.2341055173824023
v -0.0083310000000000 0.0023580000000000 0.0051430000000000
vn -1.8569737377543398 1.3499940569229361 5.3691106210525446
v -0.0156200000000000 0.0013330000000000 0.0027820000000000
vn -2.6235783706517020 0.5820952614482193 4.3117012633940037
v -0.0213100000000000 0.0007040000000000 0.0011680000000000
vn -4.6141031838082753 -0.6640633465065453 2.4732451744456676
v -0.0243640000000000 0.0003090000000000 -0.0019490000000000
vn -1.8895692321916813 -2.2159601426575732 5.3181681967113015
v -0.0150600000000000 -0.0024320000000000 0.0024570000000000
vn -2.5911325125160922 -2.8175738608492549 4.5110613057325173
v -0.0202920000000000 -0.0022870000000000 0.0005260000000000
vn -4.1603593621284558 -3.1447276699782893 2.2107408521767642
v -0.0231080000000000 -0.0025480000000000 -0.0022270000000000
vn -1.3923406893092931 -4.5343518404446099 3.6284214693897838
v -0.0141330000000000 -0.0051280000000000 0.0008580000000000
vn -2.2107967096614587 -4.6509652272757007 3.1670318580613244
v -0.0189020000000000 -0.0047480000000000 -0.0011230000000000
vn -0.9727684533565710 -4.4593873287502523 3.8997411968188262
v -0.0043060000000000 -0.0047000000000000 0.0041090000000000
vn -1.6413231863789608 -1.6486786975180752 5.5592416923442673
v -0.0065340000000000 -0.0013860000000000 0.0055980000000000
vn -3.3936225934322346 -4.6549717994250779 1.9710187126639624
v -0.0215570000000000 -0.0041080000000000 -0.0029010000000000
vn -3.5371070646619955 2.4910978477088572 -1.4884793123167688
v -0.0244360000000000 0.0038590000000000 -0.0073400000000000
vn -4.9437452961131410 -1.2687455507414496 -1.6723241097454278
v -0.0245910000000000 -0.0003780000000000 -0.0074500000000000
vn -2.2774209141821475 5.4751538385627310 -1.4975877297281535
v -0.0229040000000000 0.0045380000000000 -0.0069830000000000
vn 0.8984019561735574 2.8798365811879658 -5.2035458768657543
v -0.0110550000000000 0.0020790000000000 -0.0105080000000000
vn 0.1144002493405387 2.1400932814597975 -5.2800903486180992
v -0.0174270000000000 0.0014380000000000 -0.0121140000000000
vn 1.2720487599209436 -0.5418486187907516 -5.8489089953095963
v -0.0103080000000000 -0.0006040000000000 -0.0109320000000000
vn -0.0154902680609973 -1.1340043621097815 -5.4179672431796106
v -0.0168310000000000 -0.0012760000000000 -0.0124050000000000
vn -2.1715875990094129 1.8572498696025377 -4.2012019771742262
v -0.0214670000000000 0.0023140000000000 -0.0112980000000000
vn -1.0548793016838531 4.6208961971741909 -3.7901194040821444
v -0.0210610000000000 0.0031780000000000 -0.0105010000000000
vn 1.8808731490774635 -2.0564069469190787 2.8808804058580444
v -0.0012680000000000 -0.0046160000000000 0.0049180000000000
vn 2.4724572450807059 -2.7213646435451930 1.0906543429451310
v 0.0005330000000000 -0.0065790000000000 0.0007500000000000
vn 0.0185719567318253 -5.9032145167938648 1.0207957064009197
v -0.0025760000000000 -0.0067200000000000 0.0001780000000000
vn -0.4421373102190597 -5.8299993585734846 0.5790653575591659
v -0.0131280000000000 -0.0070150000000000 -0.0030790000000000
vn 0.9182002805384508 -5.3539774199119119 -2.3746602300905915
v -0.0015110000000000 -0.0061310000000000 -0.0043680000000000
vn 1.3749124408503279 -3.0088732368603912 -4.9799295047638772
v -0.0044400000000000 -0.0029580000000000 -0.0087880000000000
vn 1.0793672857580892 -3.6013042929110846 -4.8571571528144029
v -0.0106440000000000 -0.0035480000000000 -0.0097310000000000
vn 0.3962990040094879 -5.2920385997572552 -2.8119413081078006
v -0.0118460000000000 -0.0060310000000000 -0.0072930000000000
vn -0.1773320058473872 -3.7294521229558728 -4.2682932020427442
v -0.0165500000000000 -0.0037280000000000 -0.0111130000000000
vn -0.1960869623139779 -5.4462761523837360 -2.9022223384943877
v -0.0160680000000000 -0.0052010000000000 -0.0087170000000000
vn -1.4096253452476724 -5.4420928434244056 0.1465242220411931
v -0.0178850000000000 -0.0065760000000000 -0.0045080000000000
vn -2.7519467002021623 -3.7159715046085848 -3.8702302026903030
v -0.0204340000000000 -0.0030130000000000 -0.0100720000000000
vn -2.7290170491854941 -1.3167787411523608 -4.4902438944402849
v -0.0212640000000000 -0.0005020000000000 -0.0114700000000000
vn -4.3029498265184616 -3.4687269962605281 -1.1345855316366911
v -0.0232510000000000 -0.0031640000000000 -0.0065890000000000
vn -2.0010113307140607 -5.0028242655455752 -2.7315941037222609
v -0.0194590000000000 -0.0047660000000000 -0.0084950000000000
vn -3.2161542229071336 -4.8193691664484577 -0.5137916730831391
v -0.0214530000000000 -0.0048600000000000 -0.0057730000000000
# 62 vertices, 0 vertices normals

f 9//9 10//10 6//6
f 6//6 10//10 1//1
f 12//12 13//13 11//11
f 11//11 13//13 14//14
f 15//15 16//16 12//12
f 12//12 16//16 13//13
f 13//13 16//16 18//18
f 18//18 16//16 17//17
f 19//19 20//20 18//18
f 18//18 20//20 21//21
f 17//17 22//22 18//18
f 18//18 22//22 19//19
f 21//21 14//14 18//18
f 18//18 14//14 13//13
f 23//23 24//24 14//14
f 14//14 24//24 11//11
f 16//16 15//15 17//17
f 17//17 15//15 25//25
f 15//15 3//3 25//25
f 25//25 3//3 2//2
f 15//15 26//26 3//3
f 3//3 26//26 4//4
f 12//12 27//27 15//15
f 15//15 27//27 26//26
f 27//27 12//12 28//28
f 28//28 12//12 11//11
f 17//17 25//25 22//22
f 22//22 25//25 10//10
f 10//10 25//25 1//1
f 1//1 25//25 2//2
f 24//24 29//29 11//11
f 11//11 29//29 28//28
f 30//30 27//27 31//31
f 31//31 27//27 28//28
f 29//29 32//32 28//28
f 28//28 32//32 31//31
f 33//33 30//30 34//34
f 34//34 30//30 31//31
f 30//30 33//33 36//36
f 36//36 33//33 35//35
f 32//32 37//37 31//31
f 31//31 37//37 34//34
f 27//27 30//30 26//26
f 26//26 30//30 36//36
f 26//26 36//36 4//4
f 4//4 36//36 5//5
f 29//29 24//24 39//39
f 39//39 24//24 38//38
f 24//24 23//23 38//38
f 38//38 23//23 40//40
f 19//19 22//22 41//41
f 41//41 22//22 10//10
f 20//20 19//19 42//42
f 42//42 19//19 41//41
f 10//10 9//9 41//41
f 41//41 9//9 43//43
f 42//42 41//41 44//44
f 44//44 41//41 43//43
f 42//42 45//45 20//20
f 20//20 45//45 46//46
f 40//40 46//46 38//38
f 38//38 46//46 45//45
f 47//47 35//35 48//48
f 48//48 35//35 49//49
f 35//35 33//33 49//49
f 49//49 33//33 50//50
f 48//48 49//49 8//8
f 8//8 49//49 51//51
f 47//47 5//5 35//35
f 35//35 5//5 36//36
f 52//52 7//7 51//51
f 51//51 7//7 8//8
f 52//52 9//9 7//7
f 7//7 9//9 6//6
f 53//53 43//43 52//52
f 52//52 43//43 9//9
f 53//53 52//52 54//54
f 54//54 52//52 51//51
f 55//55 53//53 56//56
f 56//56 53//53 54//54
f 49//49 50//50 51//51
f 51//51 50//50 54//54
f 50//50 57//57 54//54
f 54//54 57//57 56//56
f 53//53 55//55 43//43
f 43//43 55//55 44//44
f 59//59 44//44 58//58
f 58//58 44//44 55//55
f 58//58 61//61 60//60
f 60//60 61//61 62//62
f 58//58 55//55 61//61
f 61//61 55//55 56//56
f 58//58 60//60 59//59
f 59//59 60//60 39//39
f 59//59 39//39 45//45
f 45//45 39//39 38//38
f 45//45 42//42 59//59
f 59//59 42//42 44//44
f 33//33 34//34 50//50
f 50//50 34//34 57//57
f 62//62 57//57 37//37
f 37//37 57//57 34//34
f 62//62 61//61 57//57
f 57//57 61//61 56//56
f 62//62 37//37 60//60
f 60//60 37//37 32//32
f 32//32 29//29 60//60
f 60//60 29//29 39//39
f 14//14 21//21 23//23
f 23//23 21//21 40//40
f 40//40 21//21 46//46
f 46//46 21//21 20//20
f 8//8 7//7 6//6
f 8//8 6//6 1//1
f 8//8 1//1 2//2
f 48//48 8//8 2//2
f 47//47 48//48 2//2
f 47//47 2//2 3//3
f 5//5 47//47 3//3
f 4//4 5//5 3//3
# 120 faces, 0 coords texture

# End of File
