####
#
# OBJ File Generated by Meshlab
#
####
# Object ring1_vis.obj
#
# Vertices: 44
# Faces: 84
#
####
vn -0.2089953096162394 -2.2016760287142314 2.0671633946201040
v -0.0070790000000000 -0.0060520000000000 0.0109950000000000
vn 1.2602765577801187 -3.5760501954554362 1.5459930083064777
v -0.0012230000000000 -0.0077830000000000 0.0038500000000000
vn 2.1454127730075347 0.5653069071042788 -0.7530598644917281
v 0.0101870000000000 0.0063260000000000 -0.0046090000000000
vn 0.1016673715792846 0.1546995611054827 -6.1345313931329803
v 0.0024650000000000 0.0006610000000000 -0.0067480000000000
vn 1.2060255856223492 2.4620333814545523 -5.3051905766758578
v 0.0023120000000000 0.0063580000000000 -0.0060790000000000
vn -3.0900756825660465 -5.1888860914308337 -1.5928279737215756
v 0.0004810000000000 -0.0076800000000000 -0.0018640000000000
vn -3.0647404959317197 -2.6820516034917246 -4.2312703287181215
v -0.0000060000000000 -0.0057200000000000 -0.0050740000000000
vn 0.3767392861923925 -0.8356158704140841 -0.6647144578306583
v 0.0053330000000000 -0.0094510000000000 -0.0086180000000000
vn -1.3854185658416822 -0.4489829117885783 4.7897969633959256
v -0.0087820000000000 -0.0006600000000000 0.0119730000000000
vn 1.0316457742035630 1.7660657335474461 2.7294310462898119
v -0.0009300000000000 0.0104570000000000 0.0104190000000000
vn 2.0360109067075509 2.5839571980471949 0.2562793754291051
v 0.0058100000000000 0.0125890000000000 0.0010240000000000
vn 0.7047389849235575 5.3069501146848097 -1.6960644765030590
v -0.0010710000000000 0.0124890000000000 -0.0010480000000000
vn -0.5501710761169072 5.5906934129386450 2.2241991529586298
v -0.0056360000000000 0.0117230000000000 0.0048450000000000
vn -2.0831424235335714 2.8174416159478457 5.0040769729308030
v -0.0098100000000000 0.0065460000000000 0.0089370000000000
vn -3.2263308210503094 -3.5253912297490255 -0.2235992908961931
v -0.0287030000000000 -0.0059560000000000 -0.0033920000000000
vn -3.5176966892486874 -2.0565035117034265 1.0590168156759838
v -0.0310880000000000 -0.0029120000000000 0.0009150000000000
vn -3.1545891482502468 1.0942416538027715 1.4058311962274062
v -0.0324320000000000 0.0064900000000000 0.0014560000000000
vn -3.1535569417405389 3.5105946127900451 0.6298480890311289
v -0.0298540000000000 0.0104850000000000 -0.0013820000000000
vn -2.4165084921911992 3.8554626757679640 -1.7188688221824757
v -0.0275130000000000 0.0112580000000000 -0.0067520000000000
vn -1.1450023044536290 4.9750957030690834 2.1717451428010004
v -0.0250150000000000 0.0117010000000000 -0.0000770000000000
vn -1.8730427894147528 2.6712399786505059 5.0883790095395955
v -0.0283040000000000 0.0070680000000000 0.0026940000000000
vn -1.8263949265714237 2.5716951952213050 5.2678354295888443
v -0.0137850000000000 0.0067380000000000 0.0072410000000000
vn -0.7039200115576419 5.0615548305123914 2.5788748754486122
v -0.0118290000000000 0.0122100000000000 0.0033780000000000
vn -2.8849482434013876 -0.3721707865969053 0.7133337012222563
v -0.0326250000000000 0.0015780000000000 0.0020160000000000
vn 1.0373334461755896 -4.2080016061216217 -3.9123399722858609
v -0.0220110000000000 -0.0049630000000000 -0.0104220000000000
vn -0.1304956162475314 -5.7782305650071297 -0.9984242002148902
v -0.0232330000000000 -0.0070730000000000 -0.0062480000000000
vn -2.7104138407560709 -3.4253962256788268 -1.7773211151788955
v -0.0270690000000000 -0.0059980000000000 -0.0085640000000000
vn -2.0171751777868852 -2.3591015684756038 -3.2191468360046165
v -0.0262540000000000 -0.0037070000000000 -0.0121570000000000
vn -2.7177346193727909 -4.4089120760788134 2.8683038014989464
v -0.0103200000000000 -0.0038550000000000 0.0080690000000000
vn -1.3969738865328905 -5.9592807978255076 0.3081964165541443
v -0.0064700000000000 -0.0055420000000000 0.0032740000000000
vn -2.4925631651127782 -0.3865212368132827 5.5688486720585351
v -0.0136080000000000 0.0006230000000000 0.0085440000000000
vn 1.5980232792236901 -0.8921075772534559 -5.6438794793488194
v -0.0212990000000000 0.0009020000000000 -0.0132410000000000
vn 0.7608708745876467 3.0817327210986085 -4.6375913281960530
v -0.0205810000000000 0.0079860000000000 -0.0119240000000000
vn 1.5773978337801620 2.2283440267873296 -5.1206200704595268
v -0.0067110000000000 0.0072910000000000 -0.0083830000000000
vn 1.5362994346437051 -1.7119319914311202 -5.6503349121903437
v -0.0057600000000000 0.0011690000000000 -0.0079470000000000
vn -2.2538391584551629 -0.1243766802585590 5.5872118828290365
v -0.0291000000000000 0.0018980000000000 0.0036080000000000
vn -1.0183098629808700 -5.6362537558572594 1.6150279626850101
v -0.0248330000000000 -0.0065840000000000 -0.0013130000000000
vn -2.0316797489335823 -3.3428066357639965 4.1113859255940586
v -0.0277800000000000 -0.0034060000000000 0.0026780000000000
vn -0.1509546140389419 5.8421052387256074 -1.6176558059494779
v -0.0223190000000000 0.0117320000000000 -0.0056750000000000
vn -1.8133577808932368 2.1794461808979584 -3.3486029861571143
v -0.0261860000000000 0.0076940000000000 -0.0126920000000000
vn -1.4171989441171509 -0.2108426995505919 -3.4065263143829556
v -0.0262020000000000 0.0014290000000000 -0.0147930000000000
vn 0.4926178215431921 5.2739944846243816 -1.6499996238671766
v -0.0088290000000000 0.0130410000000000 -0.0030970000000000
vn 0.0685197381362095 -4.4269367990745856 -4.1780945299458239
v -0.0048880000000000 -0.0043900000000000 -0.0038380000000000
vn -1.0554934672812744 -5.9249824107457041 -1.2799431143395124
v -0.0047350000000000 -0.0060230000000000 -0.0007190000000000
# 44 vertices, 0 vertices normals

f 3//3 4//4 5//5
f 8//8 6//6 7//7
f 11//11 12//12 10//10
f 10//10 12//12 13//13
f 7//7 4//4 8//8
f 3//3 5//5 11//11
f 11//11 5//5 12//12
f 13//13 14//14 10//10
f 10//10 14//14 9//9
f 21//21 22//22 20//20
f 20//20 22//22 23//23
f 26//26 27//27 25//25
f 25//25 27//27 28//28
f 29//29 30//30 1//1
f 1//1 30//30 2//2
f 31//31 29//29 9//9
f 9//9 29//29 1//1
f 33//33 34//34 32//32
f 32//32 34//34 35//35
f 36//36 21//21 24//24
f 24//24 21//21 17//17
f 26//26 37//37 27//27
f 27//27 37//37 15//15
f 38//38 36//36 16//16
f 16//16 36//36 24//24
f 39//39 33//33 19//19
f 19//19 33//33 40//40
f 33//33 32//32 40//40
f 40//40 32//32 41//41
f 39//39 19//19 20//20
f 20//20 19//19 18//18
f 20//20 23//23 39//39
f 39//39 23//23 42//42
f 32//32 35//35 25//25
f 25//25 35//35 43//43
f 37//37 38//38 15//15
f 15//15 38//38 16//16
f 17//17 21//21 18//18
f 18//18 21//21 20//20
f 25//25 28//28 32//32
f 32//32 28//28 41//41
f 42//42 12//12 34//34
f 34//34 12//12 5//5
f 31//31 22//22 36//36
f 36//36 22//22 21//21
f 22//22 14//14 23//23
f 23//23 14//14 13//13
f 44//44 26//26 43//43
f 43//43 26//26 25//25
f 30//30 29//29 37//37
f 37//37 29//29 38//38
f 29//29 31//31 38//38
f 38//38 31//31 36//36
f 4//4 35//35 5//5
f 5//5 35//35 34//34
f 44//44 30//30 26//26
f 26//26 30//30 37//37
f 23//23 13//13 42//42
f 42//42 13//13 12//12
f 35//35 4//4 43//43
f 43//43 4//4 7//7
f 34//34 33//33 42//42
f 42//42 33//33 39//39
f 22//22 31//31 14//14
f 14//14 31//31 9//9
f 6//6 44//44 7//7
f 7//7 44//44 43//43
f 30//30 44//44 2//2
f 2//2 44//44 6//6
f 8//8 4//4 3//3
f 10//10 9//9 1//1
f 2//2 6//6 8//8
f 2//2 8//8 3//3
f 10//10 1//1 2//2
f 10//10 2//2 3//3
f 11//11 10//10 3//3
f 17//17 18//18 19//19
f 17//17 19//19 40//40
f 17//17 40//40 41//41
f 17//17 41//41 28//28
f 17//17 28//28 27//27
f 17//17 27//27 15//15
f 17//17 15//15 16//16
f 17//17 16//16 24//24
# 84 faces, 0 coords texture

# End of File
