####
#
# OBJ File Generated by Meshlab
#
####
# Object thumb3_vis.obj
#
# Vertices: 62
# Faces: 120
#
####
vn 1.8512519857405736 2.6403247195078245 0.1218658423007734
v 0.0024290000000000 0.0102940000000000 0.0052910000000000
vn 2.4367765347565458 0.9392344870838671 0.4728317166837794
v 0.0062620000000000 0.0049140000000000 0.0086820000000000
vn 3.6046482655579126 -0.2430401820712691 1.3367952133811913
v 0.0065240000000000 -0.0019200000000000 0.0091080000000000
vn 3.8594195943738128 -1.7647062197796537 0.0726683367848582
v 0.0055640000000000 -0.0071790000000000 0.0053890000000000
vn 3.1449229420527498 -3.4791166125392907 -1.3231349551890368
v 0.0030990000000000 -0.0095250000000000 0.0017710000000000
vn 1.4711817289806812 3.3767180740331364 -1.5552298465883694
v -0.0012050000000000 0.0102810000000000 -0.0003080000000000
vn 0.5132993045254808 2.8986910010151345 -2.9122575536165853
v -0.0040390000000000 0.0081420000000000 -0.0047170000000000
vn 0.1084733607405619 0.9666535103857589 -4.2853095180769225
v -0.0050260000000000 0.0024220000000000 -0.0078190000000000
vn -1.9278532398032029 5.6491740096001264 -0.5696647321939539
v -0.0089800000000000 0.0083230000000000 0.0019400000000000
vn -0.6486981773991889 5.3224442131587235 2.7423392791484122
v -0.0132140000000000 0.0056130000000000 0.0109820000000000
vn 1.7671761057195874 -3.4547748865629426 4.0515369757123905
v -0.0176850000000000 -0.0095890000000000 0.0216180000000000
vn 3.0986299336940113 -2.4100653925137241 4.4386182893781641
v -0.0119910000000000 -0.0091360000000000 0.0179140000000000
vn 3.5514992037823330 0.2327397898920414 5.0843255342486326
v -0.0128580000000000 -0.0064040000000000 0.0188340000000000
vn 3.1762951224254583 -0.6310708948827484 4.8614235617548029
v -0.0175780000000000 -0.0069800000000000 0.0226350000000000
vn 2.7009576685500445 -0.8338972616443352 5.2973521218590198
v -0.0078520000000000 -0.0059910000000000 0.0161550000000000
vn 2.4250652634264411 0.9428702120768043 5.6813754552377276
v -0.0098470000000000 -0.0045190000000000 0.0167050000000000
vn -0.5182667700465028 2.0901985062549011 5.1057545861440010
v -0.0105810000000000 0.0004570000000000 0.0150280000000000
vn 2.6903453269893132 3.2749425322956793 4.2197186853407684
v -0.0148490000000000 -0.0001820000000000 0.0183670000000000
vn 0.1846691951215415 4.7176203349871422 4.0781943059963330
v -0.0140080000000000 0.0037640000000000 0.0129140000000000
vn 1.0014675439534297 5.5034460380634869 2.7864570906478896
v -0.0178170000000000 0.0034990000000000 0.0141340000000000
vn 2.7022892025669538 3.3136213843546938 4.2385750407266052
v -0.0192490000000000 -0.0006610000000000 0.0216380000000000
vn 1.3571984684976890 -0.2205381226042404 4.6848733082947938
v -0.0205750000000000 -0.0053910000000000 0.0248830000000000
vn 0.1103549492578400 2.5616024106096562 4.7967287059986417
v -0.0232030000000000 -0.0014360000000000 0.0241590000000000
vn -1.1411856712050399 -2.9249384853208320 4.0980909881757182
v -0.0224640000000000 -0.0080170000000000 0.0238460000000000
vn -0.0258625344840136 2.0505567383786123 4.8302658308524720
v -0.0090030000000000 0.0016350000000000 0.0156550000000000
vn 2.7147994887954265 -3.9649365444770286 3.4066573070988539
v -0.0031230000000000 -0.0093960000000000 0.0114520000000000
vn 1.9951334458124008 -4.6549006523800296 2.7302659908390061
v -0.0110470000000000 -0.0116220000000000 0.0149280000000000
vn -0.1036036016670821 -5.2302787843340681 1.8299380755069357
v -0.0183240000000000 -0.0118870000000000 0.0184460000000000
vn -2.7381463535545221 -4.0726124077683101 1.8575531552717892
v -0.0237760000000000 -0.0095710000000000 0.0211320000000000
vn 0.2036182811643272 -5.7610401336664960 0.1788239374515424
v -0.0121190000000000 -0.0130590000000000 0.0105170000000000
vn -1.7224756854316978 -5.5559524404615672 -0.4121876758979366
v -0.0190210000000000 -0.0121540000000000 0.0138290000000000
vn -3.8479735811708604 -4.4025212700253897 -0.7153851545695351
v -0.0240050000000000 -0.0094960000000000 0.0158220000000000
vn -1.5968112818483784 -5.0721271769962266 -2.3078917114338999
v -0.0141920000000000 -0.0118700000000000 0.0060490000000000
vn -3.1012072823299861 -4.7221760232211389 -2.1415638744168382
v -0.0201800000000000 -0.0105040000000000 0.0102300000000000
vn -0.5203175152737186 -5.0848534131857539 -3.0467389449883697
v -0.0033330000000000 -0.0094530000000000 -0.0013130000000000
vn 1.5135001865576001 -5.5220534776037509 0.1328416775846616
v -0.0017690000000000 -0.0113620000000000 0.0050820000000000
vn -4.2194419549437363 -4.1062763670328879 -1.9870204473854729
v -0.0233240000000000 -0.0088090000000000 0.0129620000000000
vn -2.9388176942977902 0.4820768983661584 3.5544603390881671
v -0.0260140000000000 -0.0026780000000000 0.0238820000000000
vn -4.9811411397986971 -1.2740919866924849 1.4012433008840885
v -0.0274980000000000 -0.0044140000000000 0.0206920000000000
vn -0.7272118936720091 5.8301962076928637 1.2557878571562535
v -0.0186970000000000 0.0050990000000000 0.0110240000000000
vn 0.4047999605575003 5.3975737425453261 1.9082466207002007
v -0.0220060000000000 0.0035490000000000 0.0175200000000000
vn -1.9886885119026481 5.5472542932393791 0.4127658547330590
v -0.0236130000000000 0.0037620000000000 0.0146020000000000
vn -2.5509878063696236 5.1815289885272540 -1.0562152071942315
v -0.0188330000000000 0.0051560000000000 0.0068040000000000
vn -3.7868104654278598 3.8483738578786921 -1.3974047685505000
v -0.0246790000000000 0.0030470000000000 0.0118210000000000
vn -3.5703115729479737 3.4439326486103172 1.5791286934418773
v -0.0264850000000000 0.0017530000000000 0.0192940000000000
vn -0.4615568360294545 4.4414572138939121 3.1885710589980127
v -0.0238820000000000 0.0020140000000000 0.0209340000000000
vn 1.9503101990923035 -2.3404174480234641 -2.9182954695526333
v 0.0002650000000000 -0.0082320000000000 -0.0036790000000000
vn 1.1692584340544274 -0.8953838768248485 -3.7347797655692414
v -0.0024950000000000 -0.0033890000000000 -0.0073860000000000
vn -2.1501489475706386 -3.0639363816652021 -4.8202453927723994
v -0.0059290000000000 -0.0043950000000000 -0.0052860000000000
vn -3.0155979051273571 -3.0754768314894729 -4.0400804715253917
v -0.0163620000000000 -0.0070430000000000 0.0017090000000000
vn -2.9335486055083191 0.2751224495686648 -4.8750195859201852
v -0.0091460000000000 0.0010960000000000 -0.0057880000000000
vn -2.8986320273669626 3.8362884102674899 -3.2864632845742561
v -0.0100430000000000 0.0062320000000000 -0.0023750000000000
vn -3.7953499581053629 2.9180091178085359 -3.1982212776388121
v -0.0192840000000000 0.0031390000000000 0.0034300000000000
vn -3.9549448885981930 -0.1163425242134505 -4.3196171619932713
v -0.0184240000000000 -0.0011770000000000 0.0010940000000000
vn -4.8405495261904345 1.4080414203277185 -2.9964657022292127
v -0.0246800000000000 0.0003700000000000 0.0090960000000000
vn -4.9143692006371964 -0.7501913651531942 -3.5756171875562410
v -0.0237300000000000 -0.0023480000000000 0.0077840000000000
vn -4.2471406987074740 -2.9274614543511239 -3.1270143505300778
v -0.0222560000000000 -0.0071150000000000 0.0081550000000000
vn -5.5615908425083411 -0.2315509725947811 -2.0647711165507547
v -0.0269440000000000 -0.0019840000000000 0.0133610000000000
vn -5.0604392595748084 1.8306356101291739 -0.4512630553328075
v -0.0275910000000000 0.0004270000000000 0.0162790000000000
vn -5.3249394752596713 -2.3342773971650095 -1.0001264270201222
v -0.0268220000000000 -0.0056500000000000 0.0159090000000000
vn -5.3213450978360015 -1.4725604686179281 -2.8859480084312672
v -0.0254660000000000 -0.0034180000000000 0.0112230000000000
vn -5.0318454853523447 -2.7487050754096760 -2.3805579763761942
v -0.0249960000000000 -0.0062450000000000 0.0124650000000000
# 62 vertices, 0 vertices normals

f 10//10 1//1 9//9
f 9//9 1//1 6//6
f 12//12 13//13 11//11
f 11//11 13//13 14//14
f 15//15 16//16 12//12
f 12//12 16//16 13//13
f 17//17 18//18 16//16
f 16//16 18//18 13//13
f 17//17 19//19 18//18
f 18//18 19//19 20//20
f 21//21 14//14 18//18
f 18//18 14//14 13//13
f 14//14 21//21 22//22
f 22//22 21//21 23//23
f 22//22 24//24 14//14
f 14//14 24//24 11//11
f 17//17 16//16 25//25
f 25//25 16//16 15//15
f 15//15 3//3 25//25
f 25//25 3//3 2//2
f 15//15 26//26 3//3
f 3//3 26//26 4//4
f 12//12 27//27 15//15
f 15//15 27//27 26//26
f 27//27 12//12 28//28
f 28//28 12//12 11//11
f 17//17 25//25 19//19
f 19//19 25//25 10//10
f 10//10 25//25 1//1
f 1//1 25//25 2//2
f 24//24 29//29 11//11
f 11//11 29//29 28//28
f 30//30 27//27 31//31
f 31//31 27//27 28//28
f 29//29 32//32 28//28
f 28//28 32//32 31//31
f 33//33 30//30 34//34
f 34//34 30//30 31//31
f 30//30 33//33 36//36
f 36//36 33//33 35//35
f 32//32 37//37 31//31
f 31//31 37//37 34//34
f 27//27 30//30 26//26
f 26//26 30//30 36//36
f 26//26 36//36 4//4
f 4//4 36//36 5//5
f 29//29 24//24 39//39
f 39//39 24//24 38//38
f 24//24 22//22 38//38
f 38//38 22//22 23//23
f 20//20 19//19 40//40
f 40//40 19//19 10//10
f 41//41 20//20 42//42
f 42//42 20//20 40//40
f 40//40 10//10 43//43
f 43//43 10//10 9//9
f 42//42 40//40 44//44
f 44//44 40//40 43//43
f 42//42 45//45 41//41
f 41//41 45//45 46//46
f 23//23 46//46 38//38
f 38//38 46//46 45//45
f 21//21 18//18 41//41
f 41//41 18//18 20//20
f 23//23 21//21 46//46
f 46//46 21//21 41//41
f 35//35 49//49 47//47
f 47//47 49//49 48//48
f 33//33 50//50 35//35
f 35//35 50//50 49//49
f 48//48 49//49 8//8
f 8//8 49//49 51//51
f 47//47 5//5 35//35
f 35//35 5//5 36//36
f 52//52 7//7 51//51
f 51//51 7//7 8//8
f 7//7 52//52 6//6
f 6//6 52//52 9//9
f 52//52 53//53 9//9
f 9//9 53//53 43//43
f 53//53 52//52 54//54
f 54//54 52//52 51//51
f 55//55 53//53 56//56
f 56//56 53//53 54//54
f 49//49 50//50 51//51
f 51//51 50//50 54//54
f 50//50 57//57 54//54
f 54//54 57//57 56//56
f 53//53 55//55 43//43
f 43//43 55//55 44//44
f 59//59 44//44 58//58
f 58//58 44//44 55//55
f 60//60 58//58 62//62
f 62//62 58//58 61//61
f 58//58 55//55 61//61
f 61//61 55//55 56//56
f 58//58 60//60 59//59
f 59//59 60//60 39//39
f 59//59 39//39 45//45
f 45//45 39//39 38//38
f 45//45 42//42 59//59
f 59//59 42//42 44//44
f 50//50 33//33 57//57
f 57//57 33//33 34//34
f 62//62 57//57 37//37
f 37//37 57//57 34//34
f 62//62 61//61 57//57
f 57//57 61//61 56//56
f 60//60 62//62 32//32
f 32//32 62//62 37//37
f 32//32 29//29 60//60
f 60//60 29//29 39//39
f 48//48 8//8 7//7
f 48//48 7//7 6//6
f 4//4 5//5 47//47
f 4//4 47//47 48//48
f 4//4 48//48 6//6
f 3//3 4//4 6//6
f 3//3 6//6 1//1
f 2//2 3//3 1//1
# 120 faces, 0 coords texture

# End of File
