####
#
# OBJ File Generated by Meshlab
#
####
# Object middle2_vis.obj
#
# Vertices: 43
# Faces: 82
#
####
vn 0.0675073246455342 -5.2586020507493512 2.7727171266260404
v 0.0046870000000000 -0.0068390000000000 0.0040020000000000
vn -0.3260331831017626 -6.1572671282363940 -0.0882529355075323
v 0.0040340000000000 -0.0078720000000000 -0.0021870000000000
vn -3.1236365712919234 -2.7847554200105691 0.7035759332442636
v -0.0013460000000000 -0.0072950000000000 -0.0003670000000000
vn -2.5387438442552086 -2.4721623545031082 1.9797333172387970
v -0.0001690000000000 -0.0062860000000000 0.0048020000000000
vn 1.0951502201867571 3.9243023994176296 4.1208361888583376
v 0.0048100000000000 0.0068040000000000 0.0062590000000000
vn 1.2691944312009078 0.1355359869370879 5.8870577415282446
v 0.0052420000000000 0.0010450000000000 0.0082390000000000
vn -1.7456987364102594 0.3919822178384301 3.1919443892879391
v 0.0009310000000000 0.0022750000000000 0.0092530000000000
vn -2.0729948868228933 2.2260239025919382 1.7619078462365858
v 0.0001080000000000 0.0079130000000000 0.0058890000000000
vn -0.1787690600587116 5.6772693197646582 0.3381487887390026
v 0.0037560000000000 0.0095170000000000 0.0003810000000000
vn 0.6551019616390485 -3.0991788062425800 5.1791801794521541
v 0.0051900000000000 -0.0038780000000000 0.0068730000000000
vn -2.2648360709376067 -1.3196494301647450 3.2211222195369760
v 0.0006960000000000 -0.0028020000000000 0.0079900000000000
vn -2.6957142650178176 -2.8350902201813519 -1.1020062638795756
v -0.0014910000000000 -0.0071810000000000 -0.0052650000000000
vn -2.9807122707615452 -1.2719527985731336 -2.5648434492505001
v -0.0017300000000000 -0.0031740000000000 -0.0089640000000000
vn -2.0032474370909070 2.0591320378104756 -1.4342049119846063
v -0.0015850000000000 0.0075760000000000 -0.0073640000000000
vn -0.1810941718145850 2.4481439757910040 -5.4938398089605931
v 0.0158950000000000 0.0028690000000000 -0.0104330000000000
vn -0.1423012675959805 1.6158461561021640 -5.6426920212991227
v 0.0035800000000000 0.0026720000000000 -0.0102270000000000
vn -0.3852453180501565 -1.8906037207593867 -5.7942561948643352
v 0.0039250000000000 -0.0024450000000000 -0.0098020000000000
vn -0.6432172353881194 -0.6523808863678922 -5.9470703067174480
v 0.0169790000000000 -0.0019280000000000 -0.0112810000000000
vn -2.5270141693988037 0.5927773163030159 -2.8373925375104849
v -0.0016240000000000 0.0024030000000000 -0.0101070000000000
vn 0.2896401144159906 4.8680683199864223 -3.3806020938842778
v 0.0032320000000000 0.0074910000000000 -0.0067090000000000
vn 0.4902508316444009 -5.5747971776326901 2.1358449109744142
v 0.0201200000000000 -0.0079150000000000 0.0001890000000000
vn 0.2041486771709494 -5.6887409416387129 -1.2957840866443509
v 0.0196600000000000 -0.0085660000000000 -0.0058280000000000
vn 0.7545851767310430 -3.7172148911463712 4.7756452060083019
v 0.0202770000000000 -0.0051490000000000 0.0036970000000000
vn 1.2338771184568693 3.4996256356570936 4.5220958021314352
v 0.0170790000000000 0.0045710000000000 0.0043750000000000
vn 1.0144826609239292 -0.5961671192876593 5.8939669496250549
v 0.0190990000000000 -0.0014950000000000 0.0054670000000000
vn -0.4997253683383083 -4.6790052806194069 -3.4748358772307140
v 0.0039290000000000 -0.0066710000000000 -0.0071700000000000
vn -0.3655177060280265 -3.7929615516625019 -4.4908567638279537
v 0.0187420000000000 -0.0060920000000000 -0.0098470000000000
vn 0.3681573682095920 4.9588720305178953 -3.1893025497769605
v 0.0154290000000000 0.0064040000000000 -0.0075690000000000
vn 0.9638713010076623 5.6893026149613126 0.6797041237444890
v 0.0147930000000000 0.0081580000000000 -0.0008800000000000
vn 2.5300122270129330 3.7551252684445222 -2.0019675704426176
v 0.0207810000000000 0.0057410000000000 -0.0076670000000000
vn 2.6360679957115334 4.2979133064739905 0.3003615029692365
v 0.0207290000000000 0.0071230000000000 -0.0015930000000000
vn 2.6844881157666434 2.0068282126674246 2.1463084806161721
v 0.0229940000000000 0.0036700000000000 0.0038830000000000
vn 2.6811068562546323 0.4911623908726218 3.6019578039740860
v 0.0242870000000000 -0.0018220000000000 0.0045890000000000
vn 0.5209783493969694 -4.0562317704933246 4.5339178688523507
v 0.0245020000000000 -0.0053640000000000 0.0028160000000000
vn 2.2663831148623035 2.2865031060958585 -3.3529846134345482
v 0.0214500000000000 0.0027770000000000 -0.0105990000000000
vn 1.9529316836376971 0.4744539059612465 -3.7472201273557446
v 0.0225420000000000 -0.0016790000000000 -0.0118860000000000
vn -0.7534626593141125 -4.2006876982127874 -4.2734967276403140
v 0.0222520000000000 -0.0062280000000000 -0.0098030000000000
vn 2.2239970628399370 -3.0343419631128992 0.5347575302479093
v 0.0267020000000000 -0.0081960000000000 -0.0012070000000000
vn 2.1112319494825216 -0.6114134058361511 1.3817579772296642
v 0.0278570000000000 -0.0055160000000000 0.0025640000000000
vn 0.2344408217081103 -5.8449992460075357 1.9831512743970641
v 0.0235060000000000 -0.0076570000000000 -0.0007650000000000
vn -0.3067257594456421 -5.9845352965303720 -1.2491177355933656
v 0.0225760000000000 -0.0081130000000000 -0.0061480000000000
vn 1.8317055859109188 -3.4359445311409655 -0.9737919319869723
v 0.0254230000000000 -0.0086540000000000 -0.0065750000000000
vn 1.6604311000817273 -0.9627509220309773 -2.1821359048235909
v 0.0251390000000000 -0.0063010000000000 -0.0106350000000000
# 43 vertices, 0 vertices normals

f 2//2 1//1 3//3
f 1//1 4//4 3//3
f 6//6 5//5 7//7
f 5//5 8//8 7//7
f 5//5 9//9 8//8
f 10//10 6//6 11//11
f 6//6 7//7 11//11
f 16//16 15//15 17//17
f 15//15 18//18 17//17
f 20//20 14//14 9//9
f 1//1 2//2 21//21
f 2//2 22//22 21//21
f 10//10 1//1 23//23
f 1//1 21//21 23//23
f 1//1 10//10 4//4
f 10//10 11//11 4//4
f 5//5 6//6 24//24
f 6//6 25//25 24//24
f 2//2 26//26 22//22
f 26//26 27//27 22//22
f 20//20 28//28 16//16
f 28//28 15//15 16//16
f 16//16 17//17 19//19
f 17//17 13//13 19//19
f 17//17 18//18 26//26
f 18//18 27//27 26//26
f 9//9 29//29 20//20
f 29//29 28//28 20//20
f 6//6 10//10 25//25
f 10//10 23//23 25//25
f 24//24 29//29 5//5
f 29//29 9//9 5//5
f 16//16 19//19 20//20
f 19//19 14//14 20//20
f 17//17 26//26 13//13
f 26//26 12//12 13//13
f 26//26 2//2 12//12
f 2//2 3//3 12//12
f 29//29 31//31 28//28
f 31//31 30//30 28//28
f 29//29 24//24 31//31
f 24//24 32//32 31//31
f 24//24 25//25 32//32
f 25//25 33//33 32//32
f 25//25 23//23 33//33
f 23//23 34//34 33//33
f 28//28 30//30 15//15
f 30//30 35//35 15//15
f 15//15 35//35 18//18
f 35//35 36//36 18//18
f 18//18 36//36 27//27
f 36//36 37//37 27//27
f 33//33 34//34 39//39
f 23//23 21//21 34//34
f 21//21 40//40 34//34
f 22//22 27//27 41//41
f 27//27 37//37 41//41
f 41//41 40//40 22//22
f 40//40 21//21 22//22
f 40//40 41//41 38//38
f 41//41 42//42 38//38
f 41//41 37//37 42//42
f 37//37 43//43 42//42
f 38//38 39//39 40//40
f 39//39 34//34 40//40
f 43//43 37//37 36//36
f 8//8 9//9 14//14
f 13//13 12//12 3//3
f 19//19 13//13 3//3
f 14//14 19//19 3//3
f 14//14 3//3 4//4
f 14//14 4//4 11//11
f 14//14 11//11 7//7
f 8//8 14//14 7//7
f 30//30 31//31 32//32
f 30//30 32//32 33//33
f 30//30 33//33 39//39
f 35//35 30//30 39//39
f 36//36 35//35 39//39
f 43//43 36//36 39//39
f 42//42 43//43 39//39
f 38//38 42//42 39//39
# 82 faces, 0 coords texture

# End of File
