####
#
# OBJ File Generated by Meshlab
#
####
# Object ring2_vis.obj
#
# Vertices: 48
# Faces: 92
#
####
vn 1.4259244523736021 -3.6428164870899669 4.3862047293790640
v 0.0069740000000000 -0.0050980000000000 0.0045080000000000
vn 0.4605077018016873 -5.8674576286732831 1.5470805471911460
v 0.0048290000000000 -0.0079620000000000 0.0000660000000000
vn -1.5453228638994190 -3.9630448754830709 2.2812049794180842
v 0.0003890000000000 -0.0080230000000000 0.0017060000000000
vn -0.8730492049882614 -2.6763835322954583 3.9381456114296816
v 0.0027740000000000 -0.0049790000000000 0.0060130000000000
vn 1.5324587220541002 5.2225559210133410 2.4245881763430623
v 0.0063710000000000 0.0077400000000000 0.0019910000000000
vn 2.1527182900894921 2.5128710283496445 4.9986622995863792
v 0.0079170000000000 0.0040660000000000 0.0049990000000000
vn 2.0560148564719660 2.4395720981572717 5.0013119861723707
v 0.0041180000000000 0.0044230000000000 0.0065540000000000
vn 1.6777549799319367 5.1617849833185838 2.3856529184216289
v 0.0015390000000000 0.0084170000000000 0.0037170000000000
vn 0.3413827689947668 5.8293730238794339 -1.2232642596841141
v 0.0058850000000000 0.0084240000000000 -0.0035570000000000
vn -1.4564361320498689 4.9318339589120459 -1.2833337646257925
v -0.0008010000000000 0.0091910000000000 -0.0016540000000000
vn -1.3273659902952124 1.8190609993719615 1.2487003888357662
v -0.0033000000000000 0.0096340000000000 0.0050210000000000
vn -1.0152462639241673 0.7624768903329020 3.9631974433452100
v -0.0000100000000000 0.0050010000000000 0.0077920000000000
vn 2.2009434919446678 -0.5563432956127129 5.7561468113717149
v 0.0077990000000000 -0.0006920000000000 0.0055940000000000
vn 1.1963545156499706 -0.7046207462540839 5.7216349005841778
v 0.0043100000000000 -0.0004890000000000 0.0071150000000000
vn -2.2163386640109666 -2.0634623810075619 -0.5406821697216128
v -0.0063040000000000 -0.0070300000000000 -0.0053230000000000
vn -0.6757783385233073 -5.8147412721855289 -1.1045698592621405
v -0.0012450000000000 -0.0080650000000000 -0.0034650000000000
vn -0.9731375062711467 -3.9443070674611223 -4.5190790938945895
v -0.0020600000000000 -0.0057740000000000 -0.0070580000000000
vn -3.0129750337352430 0.0403672336722888 -2.0084212958103982
v -0.0070150000000000 -0.0011650000000000 -0.0081420000000000
vn -2.3591783702318168 3.3315855753309478 -3.1021556369484844
v -0.0021280000000000 0.0056270000000000 -0.0075930000000000
vn -1.4298498263033865 1.2879701673275807 -5.7208838186000612
v 0.0182200000000000 0.0002890000000000 -0.0142260000000000
vn -1.3975124138546793 -0.0972870619842966 -5.6712579589598633
v 0.0020190000000000 -0.0002820000000000 -0.0106730000000000
vn -1.3092209791647227 -3.8492123261317648 -4.4265235125935991
v 0.0027160000000000 -0.0057110000000000 -0.0084880000000000
vn -1.4167203850704220 -2.4608616043037475 -5.3106911459017265
v 0.0186750000000000 -0.0040410000000000 -0.0139010000000000
vn -1.4591463920787793 -0.4127304287786708 -5.5448978577550267
v -0.0021120000000000 -0.0006380000000000 -0.0096950000000000
vn -0.7757119820867014 3.7745298567864602 -4.3156922076807644
v 0.0031460000000000 0.0054660000000000 -0.0088790000000000
vn 1.4809094605385102 -4.1001372796354598 3.8394282936679014
v 0.0223960000000000 -0.0062260000000000 -0.0012740000000000
vn 0.4452845535127559 -5.9133796212160945 0.7136569588216948
v 0.0203720000000000 -0.0084550000000000 -0.0057690000000000
vn 1.9408158736693122 -1.0893322206871092 5.7380044899238589
v 0.0216790000000000 -0.0023740000000000 0.0006370000000000
vn 1.8652394870091296 4.5510518309935835 3.3656417789945787
v 0.0212560000000000 0.0046190000000000 -0.0016450000000000
vn 2.1159382768031563 1.6615293535585669 5.4696918557164755
v 0.0217030000000000 0.0009720000000000 0.0005270000000000
vn -0.5102375960519684 -5.7969210317956019 -1.6391755770538490
v 0.0032300000000000 -0.0079760000000000 -0.0049620000000000
vn -0.5396676705553214 -5.0687550746783341 -2.8903938277740568
v 0.0192500000000000 -0.0075460000000000 -0.0110030000000000
vn -0.4562765699333025 4.3372194571392573 -3.9644717651921870
v 0.0179540000000000 0.0044180000000000 -0.0119120000000000
vn 0.9930115818297197 5.6159284011643011 -0.4645628992502454
v 0.0188790000000000 0.0069430000000000 -0.0065310000000000
vn 0.1048407800325661 4.0631943986988786 -4.1548236418179858
v 0.0224590000000000 0.0034100000000000 -0.0134330000000000
vn 0.7620442076722970 5.9325840614649472 -0.5253953709708538
v 0.0233070000000000 0.0057360000000000 -0.0079800000000000
vn 2.4963281540486566 3.8918509016946743 2.9088035485172559
v 0.0259020000000000 0.0041150000000000 -0.0031170000000000
vn 3.4754852094541673 1.1599794308920406 3.9950763529171134
v 0.0264030000000000 0.0004670000000000 -0.0010750000000000
vn 3.1863629967743474 -1.0323592492806517 4.4110727864955974
v 0.0263530000000000 -0.0029630000000000 -0.0009900000000000
vn 0.6956085537463503 0.8195878382552575 -4.8956652282954334
v 0.0230760000000000 -0.0004190000000000 -0.0157750000000000
vn 1.1958270208123265 -1.7184294285938484 -4.1119590596982381
v 0.0236750000000000 -0.0041990000000000 -0.0153520000000000
vn -0.7445094677285637 -5.2927217895408916 -2.7457898332915720
v 0.0219830000000000 -0.0074690000000000 -0.0114730000000000
vn 2.0812926875285598 1.5986738688975848 -0.6468255708937222
v 0.0298340000000000 0.0052670000000000 -0.0099620000000000
vn 2.8981611254216473 -2.2973855467921993 1.5869194438675811
v 0.0278260000000000 -0.0063880000000000 -0.0035250000000000
vn 1.4299938170440845 -4.7364991742136837 3.5676206793686753
v 0.0247880000000000 -0.0063040000000000 -0.0027160000000000
vn 0.2938369757145518 -6.0438728859395869 0.5812617912461729
v 0.0229880000000000 -0.0082670000000000 -0.0068830000000000
vn 2.2744114065155383 -3.8349229528731072 -0.0693360342033551
v 0.0260960000000000 -0.0084080000000000 -0.0074560000000000
vn 1.7420132573232006 -3.2296405752535775 -2.0431476513341851
v 0.0250320000000000 -0.0078190000000000 -0.0120020000000000
# 48 vertices, 0 vertices normals

f 1//1 4//4 2//2
f 4//4 3//3 2//2
f 6//6 5//5 7//7
f 5//5 8//8 7//7
f 5//5 9//9 8//8
f 9//9 10//10 8//8
f 13//13 6//6 14//14
f 6//6 7//7 14//14
f 15//15 17//17 16//16
f 14//14 7//7 12//12
f 20//20 23//23 21//21
f 23//23 22//22 21//21
f 19//19 24//24 18//18
f 25//25 19//19 9//9
f 19//19 10//10 9//9
f 11//11 8//8 10//10
f 1//1 2//2 26//26
f 2//2 27//27 26//26
f 13//13 1//1 28//28
f 1//1 26//26 28//28
f 13//13 14//14 1//1
f 14//14 4//4 1//1
f 5//5 6//6 29//29
f 6//6 30//30 29//29
f 7//7 8//8 12//12
f 8//8 11//11 12//12
f 2//2 31//31 27//27
f 31//31 32//32 27//27
f 25//25 33//33 21//21
f 33//33 20//20 21//21
f 22//22 17//17 21//21
f 17//17 24//24 21//21
f 31//31 22//22 32//32
f 22//22 23//23 32//32
f 15//15 18//18 17//17
f 18//18 24//24 17//17
f 9//9 34//34 25//25
f 34//34 33//33 25//25
f 6//6 13//13 30//30
f 13//13 28//28 30//30
f 29//29 34//34 5//5
f 34//34 9//9 5//5
f 21//21 24//24 25//25
f 24//24 19//19 25//25
f 22//22 31//31 17//17
f 31//31 16//16 17//17
f 31//31 2//2 16//16
f 2//2 3//3 16//16
f 34//34 36//36 33//33
f 36//36 35//35 33//33
f 34//34 29//29 36//36
f 29//29 37//37 36//36
f 29//29 30//30 37//37
f 30//30 38//38 37//37
f 30//30 28//28 38//38
f 28//28 39//39 38//38
f 33//33 35//35 20//20
f 35//35 40//40 20//20
f 20//20 40//40 23//23
f 40//40 41//41 23//23
f 41//41 42//42 23//23
f 42//42 32//32 23//23
f 43//43 36//36 37//37
f 35//35 36//36 43//43
f 28//28 26//26 39//39
f 26//26 45//45 39//39
f 27//27 32//32 46//46
f 32//32 42//42 46//46
f 46//46 45//45 27//27
f 45//45 26//26 27//27
f 45//45 46//46 44//44
f 46//46 47//47 44//44
f 46//46 42//42 47//47
f 42//42 48//48 47//47
f 45//45 44//44 39//39
f 48//48 42//42 41//41
f 4//4 14//14 12//12
f 15//15 16//16 3//3
f 10//10 19//19 18//18
f 11//11 10//10 18//18
f 11//11 18//18 15//15
f 3//3 4//4 12//12
f 15//15 3//3 12//12
f 15//15 12//12 11//11
f 40//40 35//35 43//43
f 43//43 37//37 38//38
f 41//41 40//40 43//43
f 48//48 41//41 43//43
f 47//47 48//48 43//43
f 44//44 47//47 43//43
f 44//44 43//43 38//38
f 44//44 38//38 39//39
# 92 faces, 0 coords texture

# End of File
