####
#
# OBJ File Generated by Meshlab
#
####
# Object thumb1_vis.obj
#
# Vertices: 39
# Faces: 72
#
####
vn 1.7425147123220617 -5.2540332660245017 -2.9510092836674104
v 0.0152500000000000 -0.0078280000000000 -0.0085110000000000
vn 1.7086936553204635 -5.6711180317282555 -1.9876855418271242
v 0.0216710000000000 -0.0108130000000000 0.0016610000000000
vn 2.9452502921027848 -1.5736742201894862 -2.6522817586950742
v 0.0314970000000000 -0.0068340000000000 -0.0007720000000000
vn -1.4146472678318203 -5.8014385588510864 0.9315823534008133
v -0.0008790000000000 -0.0137640000000000 0.0081850000000000
vn -2.7518420489539483 -3.9961520955667114 3.2963529578107122
v -0.0089910000000000 -0.0080230000000000 0.0147930000000000
vn -2.3694101592278831 -3.9493922227687732 3.8385128786814509
v 0.0046170000000000 -0.0082140000000000 0.0235850000000000
vn -0.5761059829862214 -5.6224767757771312 1.9269822329479693
v 0.0097440000000000 -0.0136190000000000 0.0171090000000000
vn 3.6346282379657477 -1.4919847940879944 -0.5652702115743993
v 0.0366160000000000 -0.0057020000000000 0.0070040000000000
vn 2.2822428171160491 -5.3426355189153281 0.3680290535918653
v 0.0274950000000000 -0.0110870000000000 0.0091080000000000
vn 3.4616682850890497 0.4885229910487212 0.8931489595407891
v 0.0373330000000000 0.0016580000000000 0.0120700000000000
vn 0.6495547822568881 -0.0177489940338453 -3.1312598425279932
v 0.0095490000000000 -0.0032300000000000 -0.0190280000000000
vn 3.6164297054521692 2.0540610929228174 3.7728388297743303
v 0.0265000000000000 0.0136790000000000 0.0185950000000000
vn 0.0000000000000000 0.0000000000000000 0.0000000000000000
v 0.0335930000000000 0.0100210000000000 0.0153810000000000
vn -2.8119535775659816 -0.5495834100564159 -0.8685536059357284
v -0.0247790000000000 -0.0037320000000000 -0.0006890000000000
vn -3.3832255085350731 -4.2448251590587649 2.1948639365389799
v -0.0175210000000000 -0.0068760000000000 0.0071370000000000
vn -4.0431471529461991 -0.3804406978152066 3.2572646706906774
v -0.0207710000000000 0.0044040000000000 0.0131800000000000
vn -3.0830361199963181 -0.5343144004417586 5.0373669509161889
v -0.0111780000000000 0.0026570000000000 0.0189840000000000
vn -3.0793501834789128 -0.6827583255529333 5.0516288987312841
v 0.0024740000000000 0.0004020000000000 0.0268960000000000
vn -2.3273428728971379 2.5762886109442431 5.0871081094231831
v -0.0094680000000000 0.0138550000000000 0.0167680000000000
vn -2.4739804221778137 2.6170997122143618 4.9823892442136444
v 0.0040070000000000 0.0096780000000000 0.0253520000000000
vn -2.1156855170284512 2.1335240395694957 0.3035452323662576
v -0.0196590000000000 0.0170270000000000 0.0107210000000000
vn 1.6600535690522980 4.1691194466602708 3.8579739123790384
v 0.0194310000000000 0.0161200000000000 0.0211190000000000
vn 0.4624020934927902 -5.6575360167812754 -1.9514072995388900
v 0.0030720000000000 -0.0127580000000000 -0.0067930000000000
vn -1.6633082834306072 -5.7183549982536901 -0.3311807318927015
v -0.0107810000000000 -0.0119710000000000 -0.0041650000000000
vn 0.6668552849585149 -5.7799093829575723 -0.7933272156291022
v 0.0113840000000000 -0.0151690000000000 0.0044880000000000
vn 1.8068509050723072 -3.4810717214581457 2.3361136933653528
v 0.0180370000000000 -0.0122440000000000 0.0220140000000000
vn 2.9296654129460777 -3.5544814191560516 2.3847767135309392
v 0.0245970000000000 -0.0105790000000000 0.0164240000000000
vn 1.5218729628586936 3.1335492394369306 -0.4567134830768794
v 0.0247050000000000 0.0225660000000000 0.0099170000000000
vn -0.0532515176199321 5.3210572804008951 -0.3251223349763780
v 0.0117770000000000 0.0215530000000000 0.0116720000000000
vn -0.8443174152865192 3.9590752866146772 0.2113170551492021
v -0.0043570000000000 0.0226640000000000 0.0119260000000000
vn -0.7855225079579856 4.6781853766910420 3.8470097285247222
v 0.0054690000000000 0.0176090000000000 0.0193420000000000
vn 1.5061965890961762 -5.8047264018577778 0.6788618382237733
v 0.0190340000000000 -0.0135660000000000 0.0118960000000000
vn 0.5481172492781274 -2.6235024456946365 3.4114291646059138
v 0.0126090000000000 -0.0087380000000000 0.0281590000000000
vn 0.0779872780326378 -0.8479821309890204 4.3531656980181026
v 0.0104330000000000 -0.0012660000000000 0.0315430000000000
vn 0.4585206387884688 1.2031872019368757 4.5851726345816832
v 0.0116650000000000 0.0064220000000000 0.0308950000000000
vn -1.4735218321533361 -0.8049883001888243 -1.9046822226839879
v -0.0151600000000000 -0.0095420000000000 -0.0127850000000000
vn -0.6374536150796020 -1.1684346460249733 -3.2890903026267910
v -0.0023440000000000 -0.0082690000000000 -0.0175170000000000
vn 2.9580963070481592 -2.7496972599011640 3.6379099134976558
v 0.0305050000000000 -0.0071330000000000 0.0144300000000000
vn 0.4502376940031634 3.7155116353356203 3.9949369795795242
v 0.0132540000000000 0.0143430000000000 0.0257090000000000
# 39 vertices, 0 vertices normals

f 4//4 7//7 5//5
f 7//7 6//6 5//5
f 8//8 9//9 3//3
f 9//9 2//2 3//3
f 15//15 5//5 16//16
f 5//5 17//17 16//16
f 5//5 6//6 17//17
f 6//6 18//18 17//17
f 19//19 17//17 20//20
f 17//17 18//18 20//20
f 17//17 19//19 16//16
f 19//19 21//21 16//16
f 24//24 23//23 4//4
f 23//23 25//25 4//4
f 24//24 4//4 15//15
f 4//4 5//5 15//15
f 21//21 19//19 30//30
f 30//30 31//31 29//29
f 4//4 25//25 7//7
f 25//25 32//32 7//7
f 30//30 19//19 31//31
f 19//19 20//20 31//31
f 36//36 37//37 24//24
f 37//37 23//23 24//24
f 12//12 28//28 22//22
f 28//28 29//29 22//22
f 39//39 22//22 31//31
f 22//22 29//29 31//31
f 35//35 39//39 20//20
f 39//39 31//31 20//20
f 34//34 35//35 18//18
f 35//35 20//20 18//18
f 34//34 18//18 33//33
f 18//18 6//6 33//33
f 9//9 32//32 2//2
f 32//32 25//25 2//2
f 2//2 25//25 1//1
f 25//25 23//23 1//1
f 1//1 23//23 11//11
f 23//23 37//37 11//11
f 36//36 24//24 14//14
f 24//24 15//15 14//14
f 15//15 16//16 14//14
f 33//33 6//6 26//26
f 6//6 7//7 26//26
f 26//26 7//7 27//27
f 7//7 32//32 27//27
f 27//27 32//32 38//38
f 32//32 9//9 38//38
f 9//9 8//8 38//38
f 8//8 10//10 38//38
f 3//3 2//2 1//1
f 14//14 16//16 21//21
f 22//22 39//39 35//35
f 12//12 22//22 35//35
f 10//10 8//8 3//3
f 3//3 1//1 11//11
f 12//12 35//35 34//34
f 12//12 34//34 33//33
f 12//12 33//33 26//26
f 12//12 26//26 27//27
f 12//12 27//27 38//38
f 12//12 38//38 10//10
f 28//28 12//12 10//10
f 28//28 10//10 3//3
f 28//28 3//3 11//11
f 29//29 28//28 11//11
f 30//30 29//29 11//11
f 21//21 30//30 11//11
f 14//14 21//21 11//11
f 36//36 14//14 11//11
f 36//36 11//11 37//37
# 72 faces, 0 coords texture

# End of File
